<svg width="100" height="60" viewBox="0 0 100 60" fill="none" xmlns="http://www.w3.org/2000/svg">
<g clip-path="url(#clip0_79_2021)">
<path d="M28.4211 21.8903C28.4211 23.11 28.5527 24.0991 28.7829 24.8243C29.0461 25.5496 29.375 26.3408 29.8356 27.198C30 27.4617 30.0658 27.7254 30.0658 27.9562C30.0658 28.2859 29.8684 28.6155 29.4408 28.9452L27.3684 30.3298C27.0724 30.5276 26.7763 30.6265 26.5132 30.6265C26.1842 30.6265 25.8553 30.4617 25.5263 30.165C25.0658 29.6705 24.6711 29.143 24.3421 28.6155C24.0132 28.0551 23.6842 27.4287 23.3224 26.6705C20.7566 29.7035 17.5329 31.2199 13.6513 31.2199C10.8882 31.2199 8.68424 30.4287 7.07239 28.8463C5.46055 27.2639 4.63818 25.154 4.63818 22.5166C4.63818 19.7144 5.62503 17.4397 7.6316 15.7254C9.63818 14.0111 12.3027 13.154 15.6908 13.154C16.8092 13.154 17.9606 13.2529 19.1777 13.4177C20.3948 13.5826 21.6448 13.8463 22.9606 14.143V11.7364C22.9606 9.23093 22.4342 7.48367 21.4145 6.46169C20.3619 5.43972 18.5856 4.94521 16.0527 4.94521C14.9013 4.94521 13.7171 5.07708 12.5 5.37378C11.2829 5.67049 10.0987 6.03312 8.94739 6.49466C8.42108 6.72543 8.02634 6.8573 7.79608 6.92323C7.56582 6.98917 7.40134 7.02213 7.26976 7.02213C6.80924 7.02213 6.57897 6.69246 6.57897 6.00016V4.38477C6.57897 3.8573 6.64476 3.46169 6.80924 3.23092C6.97371 3.00016 7.26976 2.76939 7.73029 2.53862C8.8816 1.94521 10.2632 1.45071 11.875 1.0551C13.4869 0.626529 15.1974 0.428727 17.0066 0.428727C20.9211 0.428727 23.7829 1.31884 25.625 3.09906C27.4342 4.87928 28.3553 7.58257 28.3553 11.2089V21.8903H28.4211ZM15.0658 26.9013C16.1513 26.9013 17.2698 26.7035 18.454 26.3078C19.6382 25.9122 20.6908 25.187 21.579 24.198C22.1053 23.5716 22.5 22.8793 22.6974 22.0881C22.8948 21.2969 23.0263 20.3408 23.0263 19.2199V17.8353C22.0724 17.6046 21.0527 17.4067 20 17.2749C18.9474 17.143 17.9277 17.0771 16.9079 17.0771C14.704 17.0771 13.0921 17.5057 12.0066 18.3958C10.9211 19.2859 10.3948 20.5386 10.3948 22.187C10.3948 23.7364 10.7895 24.8903 11.6119 25.6815C12.4013 26.5057 13.5527 26.9013 15.0658 26.9013ZM41.4803 30.4617C40.8882 30.4617 40.4934 30.3628 40.2303 30.132C39.9671 29.9342 39.7369 29.4727 39.5395 28.8463L31.8092 3.36279C31.6119 2.70345 31.5132 2.27488 31.5132 2.04411C31.5132 1.51664 31.7763 1.21994 32.3027 1.21994H35.5263C36.1513 1.21994 36.579 1.31884 36.8092 1.54961C37.0724 1.74741 37.2698 2.20895 37.4671 2.83532L42.9934 24.6595L48.125 2.83532C48.2895 2.17598 48.4869 1.74741 48.75 1.54961C49.0132 1.3518 49.4737 1.21994 50.0658 1.21994H52.6974C53.3224 1.21994 53.75 1.31884 54.0132 1.54961C54.2763 1.74741 54.5066 2.20895 54.6382 2.83532L59.8355 24.9232L65.5263 2.83532C65.7237 2.17598 65.954 1.74741 66.1842 1.54961C66.4474 1.3518 66.875 1.21994 67.4671 1.21994H70.5263C71.0527 1.21994 71.3487 1.48367 71.3487 2.04411C71.3487 2.20895 71.3158 2.37378 71.2829 2.57158C71.25 2.76939 71.1842 3.03312 71.0527 3.39576L63.125 28.8793C62.9277 29.5386 62.6974 29.9672 62.4342 30.165C62.1711 30.3628 61.7434 30.4947 61.1842 30.4947H58.3553C57.7303 30.4947 57.3027 30.3958 57.0395 30.165C56.7763 29.9342 56.5461 29.5057 56.4145 28.8463L51.3158 7.58257L46.25 28.8133C46.0856 29.4727 45.8882 29.9013 45.625 30.132C45.3619 30.3628 44.9013 30.4617 44.3092 30.4617H41.4803ZM83.75 31.3518C82.0395 31.3518 80.329 31.154 78.6842 30.7584C77.0395 30.3628 75.7566 29.9342 74.9013 29.4397C74.375 29.143 74.0132 28.8133 73.8816 28.5166C73.75 28.2199 73.6842 27.8903 73.6842 27.5936V25.9122C73.6842 25.2199 73.9474 24.8903 74.4408 24.8903C74.6382 24.8903 74.8355 24.9232 75.0329 24.9892C75.2303 25.0551 75.5263 25.187 75.8553 25.3188C76.9737 25.8133 78.1908 26.209 79.4737 26.4727C80.7895 26.7364 82.0724 26.8683 83.3882 26.8683C85.4605 26.8683 87.0724 26.5056 88.1908 25.7804C89.3092 25.0551 89.9013 24.0002 89.9013 22.6485C89.9013 21.7254 89.6053 20.9672 89.0132 20.3408C88.4211 19.7144 87.3027 19.154 85.6908 18.6265L80.9211 17.143C78.5198 16.3848 76.7434 15.2639 75.6579 13.7804C74.5724 12.3298 74.0132 10.7144 74.0132 9.00016C74.0132 7.61554 74.3092 6.39576 74.9013 5.34082C75.4934 4.28587 76.2829 3.36279 77.2698 2.63752C78.2566 1.87928 79.375 1.31884 80.6908 0.923232C82.0066 0.527628 83.3882 0.362793 84.8355 0.362793C85.5592 0.362793 86.3158 0.39576 87.0395 0.494661C87.7961 0.593562 88.4869 0.72543 89.1777 0.857298C89.8355 1.02213 90.4605 1.18697 91.0527 1.38477C91.6448 1.58257 92.1053 1.78038 92.4342 1.97818C92.8948 2.24191 93.2237 2.50565 93.4211 2.80235C93.6184 3.06609 93.7171 3.42873 93.7171 3.89027V5.43972C93.7171 6.13202 93.454 6.49466 92.9605 6.49466C92.6974 6.49466 92.2698 6.36279 91.7105 6.09906C89.8355 5.24191 87.7303 4.81334 85.3948 4.81334C83.5198 4.81334 82.0395 5.11005 81.0198 5.73642C80 6.36279 79.4737 7.31884 79.4737 8.67049C79.4737 9.59356 79.8027 10.3848 80.4605 11.0111C81.1184 11.6375 82.3355 12.2639 84.079 12.8243L88.75 14.3078C91.1184 15.0661 92.829 16.121 93.8487 17.4727C94.8684 18.8243 95.3619 20.3738 95.3619 22.0881C95.3619 23.5057 95.0658 24.7914 94.5066 25.9122C93.9145 27.0331 93.125 28.0221 92.1053 28.8133C91.0855 29.6375 89.8684 30.2309 88.454 30.6595C86.9737 31.121 85.4277 31.3518 83.75 31.3518Z" fill="#252F3E"/>
<path fill-rule="evenodd" clip-rule="evenodd" d="M89.9673 47.374C79.1449 55.385 63.4212 59.6378 49.9015 59.6378C30.9541 59.6378 13.8817 52.6158 0.986992 40.9455C-0.0327452 40.0224 0.888307 38.7697 2.10541 39.4949C16.0528 47.6048 33.2567 52.5169 51.0528 52.5169C63.0594 52.5169 76.2502 50.0114 88.3883 44.8686C90.1975 44.0444 91.7436 46.0554 89.9673 47.374Z" fill="#FF9900"/>
<path fill-rule="evenodd" clip-rule="evenodd" d="M94.474 42.2311C93.0924 40.4508 85.3293 41.3739 81.8095 41.8025C80.7569 41.9343 80.5924 41.0113 81.5464 40.319C87.7306 35.9673 97.8951 37.2201 99.0793 38.6706C100.264 40.1541 98.7503 50.3409 92.9609 55.2201C92.0727 55.9783 91.2174 55.5827 91.6122 54.5937C92.928 51.33 95.8556 43.9783 94.474 42.2311Z" fill="#FF9900"/>
</g>
<defs>
<clipPath id="clip0_79_2021">
<rect width="100" height="60" fill="white"/>
</clipPath>
</defs>
</svg>
