<svg width="100" height="82" viewBox="0 0 100 82" fill="none" xmlns="http://www.w3.org/2000/svg">
<path d="M37.7324 45.941C38.0878 39.5852 41.1863 33.9692 45.881 30.001C50.4751 26.1 56.6454 23.7124 63.4192 23.7124C70.1595 23.7124 76.3297 26.0967 80.9238 30.001C85.6185 33.9692 88.7036 39.5852 89.0725 45.941C89.4279 52.465 86.8089 58.5518 82.2315 63.0581C77.5368 67.6316 70.8972 70.5237 63.4192 70.5237C55.9412 70.5237 49.268 67.6518 44.6068 63.0581C40.0127 58.5518 37.397 52.4987 37.7659 45.9747L37.7324 45.941Z" fill="white"/>
<path d="M51.7822 45.1628C51.9649 41.8966 53.5572 39.0106 55.9697 36.9714C58.3306 34.9667 61.5014 33.7397 64.9824 33.7397C68.4461 33.7397 71.6169 34.965 73.9778 36.9714C76.3904 39.0106 77.9758 41.8966 78.1653 45.1628C78.348 48.5154 77.0021 51.6433 74.6498 53.9591C72.2373 56.3094 68.8253 57.7956 64.9824 57.7956C61.1395 57.7956 57.7102 56.3197 55.3149 53.9591C52.954 51.6433 51.6099 48.5327 51.7994 45.1801L51.7822 45.1628Z" fill="#265787"/>
<path d="M31.1032 52.0754C31.1256 53.3542 31.5323 55.8427 32.1423 57.7782C33.4244 61.8912 35.6061 65.6932 38.6218 69.0285C41.7236 72.4675 45.5492 75.2326 49.9608 77.2027C54.5964 79.2592 59.6283 80.3133 64.8498 80.3133C70.0712 80.3064 75.1031 79.235 79.7387 77.1508C84.1503 75.1635 87.9759 72.3984 91.0778 68.9421C94.1107 65.5722 96.282 61.7703 97.5572 57.6573C98.2034 55.5835 98.6119 53.4751 98.7756 51.3668C98.9358 49.293 98.8687 47.202 98.574 45.1109C97.9984 41.0498 96.5922 37.2305 94.4381 33.7743C92.4736 30.5772 89.9232 27.7948 86.8902 25.4446L86.8972 25.4394L56.3955 1.93653C56.3679 1.9158 56.3455 1.89331 56.3162 1.8743C54.3172 0.332791 50.9396 0.337984 48.7511 1.88295C46.5281 3.4452 46.2696 6.0305 48.2513 7.65497L48.2427 7.66361L60.9776 18.0498L22.2043 18.0913H22.1526C18.9473 18.0947 15.8627 20.1996 15.2595 22.8783C14.6323 25.5915 16.8104 27.8553 20.1536 27.8553L20.1484 27.8674L39.7936 27.8294L4.63908 54.7886C4.59427 54.8214 4.54602 54.8559 4.50466 54.8888C1.196 57.4291 0.127575 61.6632 2.21272 64.3245C4.33233 67.0377 8.83004 67.0549 12.1732 64.34L31.3014 48.6139C31.3014 48.6139 31.0222 50.7395 31.0446 52.001L31.1032 52.0754ZM80.3884 59.178C76.4421 63.2046 70.9105 65.5031 64.948 65.5031C58.9683 65.5134 53.4366 63.2565 49.4903 59.2299C47.5603 57.2598 46.1472 55.0132 45.2684 52.6111C44.4119 50.2435 44.0793 47.7377 44.2999 45.2146C44.5084 42.7433 45.2425 40.3758 46.4195 38.2502C47.5706 36.1591 49.1595 34.2581 51.1068 32.651C54.9496 29.523 59.8265 27.8121 64.9273 27.8121C70.0454 27.8052 74.9222 29.4867 78.7651 32.6164C80.7124 34.2132 82.2978 36.1072 83.4523 38.1983C84.6293 40.3239 85.3652 42.6742 85.572 45.1628C85.7891 47.6859 85.4565 50.1917 84.6001 52.5592C83.7246 54.9786 82.3081 57.2252 80.3781 59.1953L80.3884 59.178Z" fill="#EA7600"/>
</svg>
