<svg width="89" height="100" viewBox="0 0 89 100" fill="none" xmlns="http://www.w3.org/2000/svg">
<g clip-path="url(#clip0_79_1704)">
<path d="M87.8677 74.9997C88.5661 73.7919 89 72.4311 89 71.2091V28.7903C89 27.5683 88.5666 26.2078 87.868 25L44.5 49.9999L87.8677 74.9997Z" fill="#00599C"/>
<path d="M48.3538 99.0832L85.1463 77.874C86.2061 77.263 87.1694 76.2079 87.8678 74.9999L44.5 50L1.13232 75.0001C1.83065 76.2079 2.79424 77.2632 3.8538 77.874L40.6463 99.0832C42.7657 100.305 46.2344 100.305 48.3538 99.0832Z" fill="#004482"/>
<path d="M87.868 24.9999C87.1694 23.7918 86.2058 22.7368 85.1462 22.1257L48.3538 0.916509C46.2343 -0.305503 42.7657 -0.305503 40.6462 0.916509L3.85376 22.1257C1.73405 23.3475 0 26.3467 0 28.7905V71.2092C0 72.4312 0.433657 73.7921 1.13228 74.9999L44.5 50L87.868 24.9999Z" fill="#659AD2"/>
<path d="M44.5002 79.621C28.1419 79.621 14.8335 66.333 14.8335 49.9999C14.8335 33.6668 28.1419 20.3789 44.5002 20.3789C55.0557 20.3789 64.9001 26.0505 70.1912 35.1801L57.3522 42.5982C54.704 38.0284 49.7791 35.1894 44.5002 35.1894C36.3209 35.1894 29.6668 41.8332 29.6668 49.9999C29.6668 58.1663 36.3209 64.8104 44.5002 64.8104C49.7797 64.8104 54.7046 61.9715 57.3531 57.4008L70.1921 64.8186C64.9009 73.9491 55.0563 79.621 44.5002 79.621Z" fill="white"/>
<path d="M74.1667 48.3541H70.8702V45.063H67.5743V48.3541H64.2778V51.6452H67.5743V54.9367H70.8702V51.6452H74.1667V48.3541Z" fill="white"/>
<path d="M86.5276 48.3541H83.2311V45.063H79.9352V48.3541H76.6387V51.6452H79.9352V54.9367H83.2311V51.6452H86.5276V48.3541Z" fill="white"/>
</g>
<defs>
<clipPath id="clip0_79_1704">
<rect width="89" height="100" fill="white"/>
</clipPath>
</defs>
</svg>
