<svg width="90" height="100" viewBox="0 0 90 100" fill="none" xmlns="http://www.w3.org/2000/svg">
<g clip-path="url(#clip0_79_1699)">
<path fill-rule="evenodd" clip-rule="evenodd" d="M42.4017 0.681821C44.0099 -0.225321 45.9899 -0.225321 47.5957 0.681821C55.5417 5.16515 79.4532 18.6604 87.4016 23.1437C89.0098 24.0485 89.9998 25.7247 89.9998 27.5389C89.9998 36.5056 89.9998 63.4937 89.9998 72.4603C89.9998 74.2746 89.0098 75.9508 87.4016 76.858C79.4556 81.3413 55.5441 94.8365 47.5957 99.3198C45.9875 100.227 44.0075 100.227 42.4017 99.3198C34.4557 94.8365 10.5442 81.3413 2.59578 76.858C0.989998 75.9508 0 74.277 0 72.4627C0 63.4961 0 36.508 0 27.5413C0 25.727 0.989998 24.0509 2.59815 23.1437C10.5418 18.6604 34.4581 5.16515 42.4017 0.681821Z" fill="#004482"/>
<path fill-rule="evenodd" clip-rule="evenodd" d="M0.719998 74.7721C0.0899998 73.9244 0 73.1197 0 72.0363C0 63.1221 0 36.2887 0 27.3721C0 25.5673 0.987629 23.9007 2.59105 23.0007C10.5087 18.5435 34.3397 5.12686 42.2573 0.667337C43.8607 -0.235044 46.0325 -0.215996 47.6359 0.686384C55.5536 5.14352 79.304 18.4459 87.2216 22.903C87.8611 23.2649 88.349 23.7007 88.7848 24.2745L0.719998 74.7721Z" fill="#659AD2"/>
<path fill-rule="evenodd" clip-rule="evenodd" d="M45.0001 16.6675C63.3008 16.6675 78.1579 31.6032 78.1579 50.0008C78.1579 68.3984 63.3008 83.3341 45.0001 83.3341C26.6994 83.3341 11.8423 68.3984 11.8423 50.0008C11.8423 31.6032 26.6994 16.6675 45.0001 16.6675ZM45.0001 33.3341C54.1493 33.3341 61.579 40.8008 61.579 50.0008C61.579 59.1984 54.1493 66.6674 45.0001 66.6674C35.8509 66.6674 28.4212 59.1984 28.4212 50.0008C28.4212 40.8008 35.8485 33.3341 45.0001 33.3341Z" fill="white"/>
<path fill-rule="evenodd" clip-rule="evenodd" d="M88.7802 24.2983C90.0023 25.4483 89.9787 27.1817 89.9787 28.546C89.9787 37.5817 89.9029 63.2816 90 72.3174C90.0094 73.2602 89.6992 74.2531 89.235 75.0007L44.0361 50.0007L88.7802 24.2983Z" fill="#00599C"/>
</g>
<defs>
<clipPath id="clip0_79_1699">
<rect width="90" height="100" fill="white"/>
</clipPath>
</defs>
</svg>
