<svg width="71" height="100" viewBox="0 0 71 100" fill="none" xmlns="http://www.w3.org/2000/svg">
<g clip-path="url(#clip0_79_1560)">
<path d="M71 19.6523L64.5317 91.9568L35.4565 100L6.46143 91.9682L0 19.6523H71Z" fill="#264DE4"/>
<path d="M58.9942 87.3529L64.5217 25.5654H35.5V93.8524L58.9942 87.3529Z" fill="#2965F1"/>
<path d="M14.8125 52.3862L15.6091 61.2554H35.4998V52.3862H14.8125Z" fill="#EBEBEB"/>
<path d="M35.4999 34.4346H35.4692H13.2119L14.0199 43.3039H35.4999V34.4346Z" fill="#EBEBEB"/>
<path d="M35.4999 84.6481V75.4204L35.4609 75.4308L25.5618 72.7636L24.929 65.6899H20.1188H16.0063L17.2516 79.6159L35.459 84.6595L35.4999 84.6481Z" fill="#EBEBEB"/>
<path d="M16.7095 0H27.4749V4.49219H21.2114V8.98438H27.4749V13.4766H16.7095V0Z" fill="black"/>
<path d="M29.6279 0H40.3934V3.90625H34.1299V4.6875H40.3934V13.6719H29.6279V9.57031H35.8915V8.78906H29.6279V0Z" fill="black"/>
<path d="M42.5464 0H53.3118V3.90625H47.0483V4.6875H53.3118V13.6719H42.5464V9.57031H48.8099V8.78906H42.5464V0Z" fill="black"/>
<path d="M46.4144 61.2553L45.3827 72.758L35.4692 75.4279V84.6553L53.6911 79.616L53.8247 78.1176L55.9134 54.7678L56.1303 52.3861L57.735 34.4346H35.4692V43.3039H47.994L47.1852 52.3861H35.4692V61.2553H46.4144Z" fill="white"/>
</g>
<defs>
<clipPath id="clip0_79_1560">
<rect width="71" height="100" fill="white"/>
</clipPath>
</defs>
</svg>
