<svg width="65" height="38" viewBox="0 0 65 38" fill="none" xmlns="http://www.w3.org/2000/svg">
<g clip-path="url(#clip0_104_6584)">
<path d="M37.3433 12.1383H43.0554V17.9774H45.9436C47.2773 17.9774 48.6491 17.7398 49.9122 17.3118C50.5328 17.1014 51.2295 16.8085 51.8417 16.4402C51.0354 15.3875 50.6237 14.0582 50.5025 12.7478C50.3379 10.9657 50.6974 8.64595 51.9036 7.25109L52.5041 6.5566L53.2196 7.13175C55.021 8.57905 56.536 10.6014 56.803 12.9068C58.9721 12.2688 61.5187 12.4197 63.4307 13.5231L64.2151 13.9757L63.8022 14.7815C62.1853 17.9374 58.8049 18.915 55.4999 18.742C50.5545 31.0595 39.7878 36.891 26.7331 36.891C19.9887 36.891 13.8008 34.3698 10.2771 28.3859C10.0705 28.0142 9.89357 27.6255 9.70595 27.2438C8.51485 24.6098 8.11924 21.7242 8.38761 18.8411L8.46815 17.9776H13.3526V12.1384H19.0646V6.42639H30.4887V0.714355H37.3432L37.3433 12.1383Z" fill="#394D54"/>
<mask id="mask0_104_6584" style="mask-type:luminance" maskUnits="userSpaceOnUse" x="9" y="1" width="54" height="35">
<path d="M19.4852 1.21338V12.7044H13.9895V18.4499H9.38831C9.36878 18.6162 9.35297 18.7829 9.33692 18.9495C9.04935 22.0798 9.59582 24.9667 10.8514 27.4351L11.2729 28.1923C11.5256 28.6461 11.8203 29.0724 12.1316 29.4882C12.4425 29.9035 12.5527 30.1333 12.7483 30.4093C16.0679 34.1404 21.0164 35.9362 26.7296 35.9362C39.3818 35.9362 50.1196 30.3311 54.8717 17.7395C58.2432 18.0855 61.4774 17.221 62.9513 14.3437C60.6035 12.9889 57.5859 13.4231 55.8475 14.2969L60.4532 1.21338L42.4673 12.7044H36.7218V1.21338H19.4852Z" fill="white"/>
</mask>
<g mask="url(#mask0_104_6584)">
<path d="M31.4408 1.66602H36.3913V6.61666H31.4408V1.66602Z" fill="#20C2EF"/>
<path d="M32.0486 6.20482V2.0791V6.20482ZM32.791 6.20482V2.0791V6.20482ZM33.5409 6.20482V2.0791V6.20482ZM34.2912 6.20482V2.0791V6.20482ZM35.0413 6.20482V2.0791V6.20482ZM35.7836 6.20482V2.0791V6.20482Z" fill="black"/>
<path d="M32.0486 6.20482V2.0791M32.791 6.20482V2.0791M33.5409 6.20482V2.0791M34.2912 6.20482V2.0791M35.0413 6.20482V2.0791M35.7836 6.20482V2.0791" stroke="#394D54" stroke-width="0.389696"/>
<path d="M37.1528 6.6167H42.1033V1.66632H37.1528V6.6167Z" fill="#00ACD3"/>
<path d="M37.7609 2.07888V6.20459V2.07888ZM38.5032 2.07888V6.20459V2.07888ZM39.2531 2.07888V6.20459V2.07888ZM40.0034 2.07888V6.20459V2.07888ZM40.7535 2.07888V6.20459V2.07888ZM41.4958 2.07888V6.20459V2.07888Z" fill="black"/>
<path d="M37.7609 2.07888V6.20459M38.5032 2.07888V6.20459M39.2531 2.07888V6.20459M40.0034 2.07888V6.20459M40.7535 2.07888V6.20459M41.4958 2.07888V6.20459" stroke="#394D54" stroke-width="0.389696"/>
<path d="M8.59259 7.37891H13.5431V12.3293H8.59259V7.37891Z" fill="#00ACD3"/>
<path d="M8.59259 13.0898H13.5431V18.0405H8.59259V13.0898Z" fill="#20C2EF"/>
<path d="M9.20044 11.9167V7.79102V11.9167ZM9.94282 11.9167V7.79102V11.9167ZM10.6927 11.9167V7.79102V11.9167ZM11.443 11.9167V7.79102V11.9167ZM12.1931 11.9167V7.79102V11.9167ZM12.9354 11.9167V7.79102V11.9167Z" fill="black"/>
<path d="M9.20044 11.9167V7.79102M9.94282 11.9167V7.79102M10.6927 11.9167V7.79102M11.443 11.9167V7.79102M12.1931 11.9167V7.79102M12.9354 11.9167V7.79102" stroke="#394D54" stroke-width="0.389696"/>
<path d="M9.20044 17.6286V13.5029V17.6286ZM9.94282 17.6286V13.5029V17.6286ZM10.6927 17.6286V13.5029V17.6286ZM11.443 17.6286V13.5029V17.6286ZM12.1931 17.6286V13.5029V17.6286ZM12.9354 17.6286V13.5029V17.6286Z" fill="black"/>
<path d="M9.20044 17.6286V13.5029M9.94282 17.6286V13.5029M10.6927 17.6286V13.5029M11.443 17.6286V13.5029M12.1931 17.6286V13.5029M12.9354 17.6286V13.5029" stroke="#394D54" stroke-width="0.389696"/>
<path d="M14.3045 18.041H19.255V13.0906H14.3045V18.041Z" fill="#00ACD3"/>
<path d="M14.3046 12.3291H19.2551V7.37846H14.3046V12.3291Z" fill="#20C2EF"/>
<path d="M14.9125 13.5032V17.6289V13.5032ZM15.6549 13.5032V17.6289V13.5032ZM16.4048 13.5032V17.6289V13.5032ZM17.1551 13.5032V17.6289V13.5032ZM17.9052 13.5032V17.6289V13.5032ZM18.6475 13.5032V17.6289V13.5032Z" fill="black"/>
<path d="M14.9125 13.5032V17.6289M15.6549 13.5032V17.6289M16.4048 13.5032V17.6289M17.1551 13.5032V17.6289M17.9052 13.5032V17.6289M18.6475 13.5032V17.6289" stroke="#394D54" stroke-width="0.389696"/>
<path d="M14.9125 7.79079V11.9165V7.79079ZM15.6549 7.79079V11.9165V7.79079ZM16.4048 7.79079V11.9165V7.79079ZM17.1551 7.79079V11.9165V7.79079ZM17.9052 7.79079V11.9165V7.79079ZM18.6475 7.79079V11.9165V7.79079Z" fill="black"/>
<path d="M14.9125 7.79079V11.9165M15.6549 7.79079V11.9165M16.4048 7.79079V11.9165M17.1551 7.79079V11.9165M17.9052 7.79079V11.9165M18.6475 7.79079V11.9165" stroke="#394D54" stroke-width="0.389696"/>
<path d="M20.0163 7.37842H24.9668V12.3288H20.0163V7.37842Z" fill="#00ACD3"/>
<path d="M20.0161 13.0894H24.9666V18.04H20.0161V13.0894Z" fill="#20C2EF"/>
<path d="M20.624 11.9162V7.79053V11.9162ZM21.3663 11.9162V7.79053V11.9162ZM22.1162 11.9162V7.79053V11.9162ZM22.8665 11.9162V7.79053V11.9162ZM23.6166 11.9162V7.79053V11.9162ZM24.3589 11.9162V7.79053V11.9162Z" fill="black"/>
<path d="M20.624 11.9162V7.79053M21.3663 11.9162V7.79053M22.1162 11.9162V7.79053M22.8665 11.9162V7.79053M23.6166 11.9162V7.79053M24.3589 11.9162V7.79053" stroke="#394D54" stroke-width="0.389696"/>
<path d="M20.624 17.6282V13.5024V17.6282ZM21.3663 17.6282V13.5024V17.6282ZM22.1162 17.6282V13.5024V17.6282ZM22.8665 17.6282V13.5024V17.6282ZM23.6166 17.6282V13.5024V17.6282ZM24.3589 17.6282V13.5024V17.6282Z" fill="black"/>
<path d="M20.624 17.6282V13.5024M21.3663 17.6282V13.5024M22.1162 17.6282V13.5024M22.8665 17.6282V13.5024M23.6166 17.6282V13.5024M24.3589 17.6282V13.5024" stroke="#394D54" stroke-width="0.389696"/>
<path d="M25.7283 18.041H30.6788V13.0906H25.7283V18.041Z" fill="#00ACD3"/>
<path d="M25.7282 12.3291H30.6787V7.37846H25.7282V12.3291Z" fill="#20C2EF"/>
<path d="M26.3361 13.5032V17.6289V13.5032ZM27.0785 13.5032V17.6289V13.5032ZM27.8284 13.5032V17.6289V13.5032ZM28.5787 13.5032V17.6289V13.5032ZM29.3288 13.5032V17.6289V13.5032ZM30.071 13.5032V17.6289V13.5032Z" fill="black"/>
<path d="M26.3361 13.5032V17.6289M27.0785 13.5032V17.6289M27.8284 13.5032V17.6289M28.5787 13.5032V17.6289M29.3288 13.5032V17.6289M30.071 13.5032V17.6289" stroke="#394D54" stroke-width="0.389696"/>
<path d="M26.3361 7.79079V11.9165V7.79079ZM27.0785 7.79079V11.9165V7.79079ZM27.8284 7.79079V11.9165V7.79079ZM28.5787 7.79079V11.9165V7.79079ZM29.3288 7.79079V11.9165V7.79079ZM30.071 7.79079V11.9165V7.79079Z" fill="black"/>
<path d="M26.3361 7.79079V11.9165M27.0785 7.79079V11.9165M27.8284 7.79079V11.9165M28.5787 7.79079V11.9165M29.3288 7.79079V11.9165M30.071 7.79079V11.9165" stroke="#394D54" stroke-width="0.389696"/>
<path d="M31.4407 7.37891H36.3912V12.3293H31.4407V7.37891Z" fill="#00ACD3"/>
<path d="M31.4408 13.0898H36.3913V18.0405H31.4408V13.0898Z" fill="#20C2EF"/>
<path d="M32.0486 11.9167V7.79102V11.9167ZM32.791 11.9167V7.79102V11.9167ZM33.5409 11.9167V7.79102V11.9167ZM34.2912 11.9167V7.79102V11.9167ZM35.0413 11.9167V7.79102V11.9167ZM35.7836 11.9167V7.79102V11.9167Z" fill="black"/>
<path d="M32.0486 11.9167V7.79102M32.791 11.9167V7.79102M33.5409 11.9167V7.79102M34.2912 11.9167V7.79102M35.0413 11.9167V7.79102M35.7836 11.9167V7.79102" stroke="#394D54" stroke-width="0.389696"/>
<path d="M32.0486 17.6286V13.5029V17.6286ZM32.791 17.6286V13.5029V17.6286ZM33.5409 17.6286V13.5029V17.6286ZM34.2912 17.6286V13.5029V17.6286ZM35.0413 17.6286V13.5029V17.6286ZM35.7836 17.6286V13.5029V17.6286Z" fill="black"/>
<path d="M32.0486 17.6286V13.5029M32.791 17.6286V13.5029M33.5409 17.6286V13.5029M34.2912 17.6286V13.5029M35.0413 17.6286V13.5029M35.7836 17.6286V13.5029" stroke="#394D54" stroke-width="0.389696"/>
<path d="M37.1528 18.041H42.1033V13.0906H37.1528V18.041Z" fill="#00ACD3"/>
<path d="M37.153 12.3291H42.1035V7.37846H37.153V12.3291Z" fill="#20C2EF"/>
<path d="M37.7609 13.5032V17.6289V13.5032ZM38.5032 13.5032V17.6289V13.5032ZM39.2531 13.5032V17.6289V13.5032ZM40.0034 13.5032V17.6289V13.5032ZM40.7535 13.5032V17.6289V13.5032ZM41.4958 13.5032V17.6289V13.5032Z" fill="black"/>
<path d="M37.7609 13.5032V17.6289M38.5032 13.5032V17.6289M39.2531 13.5032V17.6289M40.0034 13.5032V17.6289M40.7535 13.5032V17.6289M41.4958 13.5032V17.6289" stroke="#394D54" stroke-width="0.389696"/>
<path d="M37.7609 7.79079V11.9165V7.79079ZM38.5032 7.79079V11.9165V7.79079ZM39.2531 7.79079V11.9165V7.79079ZM40.0034 7.79079V11.9165V7.79079ZM40.7535 7.79079V11.9165V7.79079ZM41.4958 7.79079V11.9165V7.79079Z" fill="black"/>
<path d="M37.7609 7.79079V11.9165M38.5032 7.79079V11.9165M39.2531 7.79079V11.9165M40.0034 7.79079V11.9165M40.7535 7.79079V11.9165M41.4958 7.79079V11.9165" stroke="#394D54" stroke-width="0.389696"/>
</g>
<mask id="mask1_104_6584" style="mask-type:luminance" maskUnits="userSpaceOnUse" x="9" y="1" width="54" height="35">
<path d="M19.4852 1.21338V12.7044H13.9895V18.4499H9.38831C9.36878 18.6162 9.35297 18.7829 9.33692 18.9495C9.04935 22.0798 9.59582 24.9667 10.8514 27.4351L11.2729 28.1923C11.5256 28.6461 11.8203 29.0724 12.1316 29.4882C12.4425 29.9035 12.5527 30.1333 12.7483 30.4093C16.0679 34.1404 21.0164 35.9362 26.7296 35.9362C39.3818 35.9362 50.1196 30.3311 54.8717 17.7395C58.2432 18.0855 61.4774 17.221 62.9513 14.3437C60.6035 12.9889 57.5859 13.4231 55.8475 14.2969L60.4532 1.21338L42.4673 12.7044H36.7218V1.21338H19.4852Z" fill="white"/>
</mask>
<g mask="url(#mask1_104_6584)">
<path d="M55.8492 14.2986C56.2322 11.3221 54.0047 8.98405 52.6232 7.87402C51.0313 9.71453 50.7839 14.5382 53.2814 16.5691C51.8876 17.8071 48.9505 18.9294 45.9432 18.9294H8.99326C8.7008 22.0687 8.99326 37.1858 8.99326 37.1858H63.2009L62.9545 14.3476C60.6066 12.9928 57.5876 13.4248 55.8492 14.2986Z" fill="#17B5EB"/>
</g>
<mask id="mask2_104_6584" style="mask-type:luminance" maskUnits="userSpaceOnUse" x="9" y="1" width="54" height="35">
<path d="M19.4852 1.21338V12.7044H13.9895V18.4499H9.38831C9.36878 18.6162 9.35297 18.7829 9.33692 18.9495C9.04935 22.0798 9.59582 24.9667 10.8514 27.4351L11.2729 28.1923C11.5256 28.6461 11.8203 29.0724 12.1316 29.4882C12.4425 29.9035 12.5527 30.1333 12.7483 30.4093C16.0679 34.1404 21.0164 35.9362 26.7296 35.9362C39.3818 35.9362 50.1196 30.3311 54.8717 17.7395C58.2432 18.0855 61.4774 17.221 62.9513 14.3437C60.6035 12.9889 57.5859 13.4231 55.8475 14.2969L60.4532 1.21338L42.4673 12.7044H36.7218V1.21338H19.4852Z" fill="white"/>
</mask>
<g mask="url(#mask2_104_6584)">
<path d="M8.99347 22.9473V37.1861H63.2011V22.9473" fill="black" fill-opacity="0.17"/>
</g>
<mask id="mask3_104_6584" style="mask-type:luminance" maskUnits="userSpaceOnUse" x="9" y="1" width="54" height="35">
<path d="M19.4852 1.21338V12.7044H13.9895V18.4499H9.38831C9.36878 18.6162 9.35297 18.7829 9.33692 18.9495C9.04935 22.0798 9.59582 24.9667 10.8514 27.4351L11.2729 28.1923C11.5256 28.6461 11.8203 29.0724 12.1316 29.4882C12.4425 29.9035 12.5527 30.1333 12.7483 30.4093C16.0679 34.1404 21.0164 35.9362 26.7296 35.9362C39.3818 35.9362 50.1196 30.3311 54.8717 17.7395C58.2432 18.0855 61.4774 17.221 62.9513 14.3437C60.6035 12.9889 57.5859 13.4231 55.8475 14.2969L60.4532 1.21338L42.4673 12.7044H36.7218V1.21338H19.4852Z" fill="white"/>
</mask>
<g mask="url(#mask3_104_6584)">
<path d="M28.2877 35.909C24.9054 34.304 23.0489 32.1222 22.0159 29.7402L11.7413 30.191L16.9872 37.1855L28.2877 35.909Z" fill="#D4EDF1"/>
</g>
<mask id="mask4_104_6584" style="mask-type:luminance" maskUnits="userSpaceOnUse" x="9" y="1" width="54" height="35">
<path d="M19.4852 1.21338V12.7044H13.9895V18.4499H9.38831C9.36878 18.6162 9.35297 18.7829 9.33692 18.9495C9.04935 22.0798 9.59582 24.9667 10.8514 27.4351L11.2729 28.1923C11.5256 28.6461 11.8203 29.0724 12.1316 29.4882C12.4425 29.9035 12.5527 30.1333 12.7483 30.4093C16.0679 34.1404 21.0164 35.9362 26.7296 35.9362C39.3818 35.9362 50.1196 30.3311 54.8717 17.7395C58.2432 18.0855 61.4774 17.221 62.9513 14.3437C60.6035 12.9889 57.5859 13.4231 55.8475 14.2969L60.4532 1.21338L42.4673 12.7044H36.7218V1.21338H19.4852Z" fill="white"/>
</mask>
<g mask="url(#mask4_104_6584)">
<path d="M56.0817 14.1882V14.196C50.8705 20.913 43.3958 26.7809 35.3713 29.8635C28.2132 32.6132 21.9722 32.6264 17.6664 30.4177C17.2027 30.1558 16.7482 29.8653 16.2925 29.5902C13.1358 27.384 11.3577 23.7344 11.5071 18.9267H8.99347V37.1859H63.2011V13.2046H56.956L56.0817 14.1882Z" fill="black" fill-opacity="0.085"/>
</g>
<path d="M11.8973 29.9491C15.4359 30.1428 19.2122 30.1775 22.5062 29.145" stroke="#394D54" stroke-width="0.849336" stroke-linecap="round"/>
<path d="M26.0223 27.4337C26.0223 28.1879 25.4109 28.7993 24.6567 28.7993C23.9024 28.7993 23.2909 28.1879 23.2909 27.4337C23.2909 26.6795 23.9024 26.0679 24.6567 26.0679C25.4109 26.0679 26.0223 26.6795 26.0223 27.4337Z" fill="#D4EDF1"/>
<path d="M25.011 26.5208C24.8918 26.5897 24.8111 26.7188 24.8111 26.8665C24.8111 27.087 24.9898 27.2655 25.2103 27.2655C25.3614 27.2655 25.4926 27.1816 25.5604 27.0577C25.6083 27.1732 25.635 27.3 25.635 27.433C25.635 27.9731 25.1971 28.411 24.6568 28.411C24.1167 28.411 23.6786 27.9731 23.6786 27.433C23.6786 26.8926 24.1167 26.4546 24.6568 26.4546C24.7818 26.4546 24.901 26.4781 25.011 26.5208Z" fill="#394D54"/>
<path d="M0.5 23.2375H64.0322C62.6489 22.8866 59.6554 22.4126 60.1491 20.5996C57.6337 23.5103 51.5676 22.6416 50.0367 21.2063C48.3318 23.679 38.4071 22.7391 37.7149 20.8129C35.5777 23.3211 28.955 23.3211 26.8176 20.8129C26.1251 22.7391 16.2005 23.679 14.4956 21.2063C12.9646 22.6416 6.89902 23.5103 4.38343 20.5996C4.8771 22.4126 1.88362 22.8866 0.5 23.2375Z" fill="#394D54"/>
</g>
<defs>
<clipPath id="clip0_104_6584">
<rect width="64" height="36.5714" fill="white" transform="translate(0.5 0.714355)"/>
</clipPath>
</defs>
</svg>
