<svg width="100" height="100" viewBox="0 0 100 100" fill="none" xmlns="http://www.w3.org/2000/svg">
<path d="M49.3687 78.2502H51.827C53.577 78.2502 55.2249 77.4335 56.2832 76.0397L71.877 55.5252L87.4707 76.0397C88.5291 77.4314 90.177 78.2502 91.927 78.2502H94.3853L74.4916 52.0835L93.4936 27.0835H91.0353C89.2853 27.0835 87.6374 27.9002 86.5791 29.2939L71.8749 48.6397L57.1687 29.2918C56.1103 27.9002 54.4624 27.0835 52.7124 27.0835H50.2541L69.2562 52.0835L49.3687 78.2502Z" fill="#212121"/>
<path d="M49.9998 54.1665V47.9165C49.9998 34.0102 37.6144 22.9977 23.2728 25.3082C12.1082 27.1061 4.1665 37.2019 4.1665 48.5082V49.9998V54.1665V54.4623C4.1665 68.1144 14.1186 79.0165 26.8082 79.1665C37.4165 79.2915 46.3686 72.1998 49.1144 62.5019H46.9728C45.6811 62.5019 44.5103 63.2415 43.9498 64.404C40.3269 71.8936 31.8894 76.6165 22.6415 74.4915C14.1165 72.5311 8.33317 64.5436 8.33317 55.7977V54.1665H49.9998ZM8.33317 49.3957C8.33317 39.5873 14.1748 31.5686 22.7582 29.6498C34.9957 26.9165 45.8332 36.1498 45.8332 47.9165V49.9998H8.33317V49.3957Z" fill="#212121"/>
</svg>
