<svg width="67" height="100" viewBox="0 0 67 100" fill="none" xmlns="http://www.w3.org/2000/svg">
<g clip-path="url(#clip0_79_1543)">
<path d="M16.7535 99.9998C25.9976 99.9998 33.5001 92.5332 33.5001 83.3332V66.6665H16.7535C7.50934 66.6665 0.00683594 74.1332 0.00683594 83.3332C0.00683594 92.5332 7.50934 99.9998 16.7535 99.9998Z" fill="#0ACF83"/>
<path d="M0.00683594 50.0002C0.00683594 40.8002 7.50934 33.3335 16.7535 33.3335H33.5001V66.6668H16.7535C7.50934 66.6668 0.00683594 59.2002 0.00683594 50.0002Z" fill="#A259FF"/>
<path d="M0.00683594 16.6667C0.00683594 7.46667 7.50934 0 16.7535 0H33.5001V33.3333H16.7535C7.50934 33.3333 0.00683594 25.8667 0.00683594 16.6667Z" fill="#F24E1E"/>
<path d="M33.5 0H50.2467C59.4908 0 66.9933 7.46667 66.9933 16.6667C66.9933 25.8667 59.4908 33.3333 50.2467 33.3333H33.5V0Z" fill="#FF7262"/>
<path d="M66.9933 50.0002C66.9933 59.2002 59.4908 66.6668 50.2467 66.6668C41.0025 66.6668 33.5 59.2002 33.5 50.0002C33.5 40.8002 41.0025 33.3335 50.2467 33.3335C59.4908 33.3335 66.9933 40.8002 66.9933 50.0002Z" fill="#1ABCFE"/>
</g>
<defs>
<clipPath id="clip0_79_1543">
<rect width="67" height="100" fill="white"/>
</clipPath>
</defs>
</svg>
