<svg width="47" height="64" viewBox="0 0 47 64" fill="none" xmlns="http://www.w3.org/2000/svg">
<path d="M0.236693 51.639L8.11432 1.23096C8.21061 0.612752 8.69141 0.125413 9.30825 0.0206199C9.92509 -0.0841729 10.5398 0.217314 10.8347 0.769063L18.9816 15.9642L22.2289 9.78134C22.4804 9.30328 22.9761 9.00394 23.5164 9.00394C24.0566 9.00394 24.5523 9.30328 24.8039 9.78134L46.7892 51.6389L0.236693 51.639Z" fill="#FFA000"/>
<path d="M27.4519 32.0022L18.9778 15.9561L0.236693 51.6381L27.4519 32.0022Z" fill="#F57C00"/>
<path d="M46.7895 51.6376L40.7559 14.3007C40.6647 13.7645 40.282 13.3241 39.7638 13.1581C39.2456 12.992 38.6785 13.1302 38.2937 13.5146L0.236693 51.637L21.2946 63.4462C22.6169 64.1845 24.2274 64.1845 25.5498 63.4462L46.7895 51.637V51.6376Z" fill="#FFCA28"/>
<path d="M40.755 14.3013C40.6639 13.7651 40.2812 13.3247 39.763 13.1586C39.2448 12.9926 38.6777 13.1308 38.2928 13.5152L30.7394 21.0878L24.7998 9.78027C24.5483 9.30221 24.0525 9.00287 23.5123 9.00287C22.972 9.00287 22.4763 9.30221 22.2248 9.78027L18.9775 15.9631L10.8302 0.768235C10.5348 0.216339 9.91937 -0.0846593 9.3018 0.0209148C8.68423 0.126489 8.20504 0.61505 8.10982 1.23375L0.235859 51.6381H0.210466L0.235859 51.6673L0.443149 51.7691L38.2818 13.8867C38.6665 13.5002 39.235 13.3612 39.7546 13.5268C40.2742 13.6923 40.6575 14.1345 40.7477 14.6722L46.7305 51.6744L46.7887 51.6381L40.755 14.3013ZM0.304956 51.5691L8.11348 1.59022C8.20861 0.971521 8.68892 0.48296 9.30595 0.377386C9.92299 0.271812 10.5385 0.572713 10.8344 1.12471L18.9807 16.3198L22.228 10.137C22.4795 9.65892 22.9753 9.35958 23.5155 9.35958C24.0558 9.35958 24.5515 9.65892 24.803 10.137L30.6221 21.2042L0.304956 51.5691Z" fill="white" fill-opacity="0.2"/>
<path opacity="0.2" d="M25.5498 63.0909C24.2275 63.8292 22.617 63.8292 21.2946 63.0909L0.287625 51.3146L0.236693 51.6383L21.2946 63.4439C22.6169 64.1822 24.2274 64.1822 25.5498 63.4439L46.7895 51.6383L46.735 51.3037L25.5498 63.0909Z" fill="#A52714"/>
<path d="M40.6954 14.3092C40.6046 13.7732 40.2232 13.3326 39.7068 13.1675C39.1905 13.0025 38.6253 13.1397 38.2418 13.524L30.7143 21.0928L24.7959 9.79049C24.5453 9.31262 24.0513 9.01338 23.513 9.01338C22.9747 9.01338 22.4807 9.31262 22.23 9.79049L18.9936 15.9706L10.8753 0.782073C10.5809 0.230422 9.96767 -0.070528 9.35278 0.0350949C8.73789 0.140718 8.25924 0.628888 8.16446 1.24744L0.317942 51.6297L21.3022 63.4301C22.62 64.1681 24.2248 64.1681 25.5426 63.4301L46.708 51.6297L40.6954 14.3091V14.3092Z" fill="url(#paint0_linear_104_6496)"/>
<defs>
<linearGradient id="paint0_linear_104_6496" x1="-161.583" y1="1088.77" x2="5627.49" y2="4142.44" gradientUnits="userSpaceOnUse">
<stop stop-color="white" stop-opacity="0.1"/>
<stop offset="0.14" stop-color="white" stop-opacity="0.08"/>
<stop offset="0.61" stop-color="white" stop-opacity="0.02"/>
<stop offset="1" stop-color="white" stop-opacity="0"/>
</linearGradient>
</defs>
</svg>
