<svg width="100" height="42" viewBox="0 0 100 42" fill="none" xmlns="http://www.w3.org/2000/svg">
<g clip-path="url(#clip0_79_1613)">
<path d="M59.9318 14.2959C57.7392 14.2959 56.1064 15.3785 56.1064 17.9842C56.1064 19.9473 57.1825 21.3101 59.8139 21.3101C62.0441 21.3101 63.5587 19.9887 63.5587 17.9031C63.5587 15.5395 62.2032 14.2959 59.9318 14.2959ZM55.5466 32.6932C55.0277 33.3335 54.5107 34.0139 54.5107 34.8168C54.5107 36.4186 56.5421 36.9007 59.3327 36.9007C61.6444 36.9007 64.7932 36.7379 64.7932 34.5767C64.7932 33.2922 63.2783 33.2127 61.3641 33.092L55.5466 32.6932ZM67.3435 14.4171C68.0598 15.3391 68.8181 16.6218 68.8181 18.4653C68.8181 22.9136 65.3506 25.5184 60.3301 25.5184C59.0533 25.5184 57.8975 25.3585 57.1808 25.1585L55.8652 27.2822L59.7705 27.5221C66.666 27.9639 70.73 28.1646 70.73 33.4929C70.73 38.1029 66.7056 40.7064 59.7705 40.7064C52.557 40.7064 49.8071 38.8626 49.8071 35.697C49.8071 33.8928 50.6044 32.9332 51.9993 31.6086C50.6837 31.0494 50.2459 30.0481 50.2459 28.9655C50.2459 28.0832 50.6837 27.2819 51.4022 26.5199C52.1193 25.7592 52.9161 24.9967 53.8728 24.1153C51.9201 23.1537 50.4451 21.0696 50.4451 18.1036C50.4451 13.4954 53.4744 10.3306 59.571 10.3306C61.2851 10.3306 62.3219 10.4892 63.2385 10.7312H71.0107V14.1368L67.3435 14.4171Z" fill="#413000"/>
<path d="M78.0262 7.13402C75.7539 7.13402 74.4392 5.81033 74.4392 3.52514C74.4392 1.24282 75.7539 -0.000488281 78.0262 -0.000488281C80.3379 -0.000488281 81.6531 1.24282 81.6531 3.52514C81.6531 5.81029 80.3379 7.13402 78.0262 7.13402ZM72.8841 31.2178V28.0534L74.9173 27.7737C75.4756 27.6924 75.5548 27.5731 75.5548 26.9705V15.1883C75.5548 14.7484 75.4357 14.4667 75.036 14.3474L72.8841 13.5853L73.3223 10.3403H81.573V26.9708C81.573 27.6132 81.6114 27.6927 82.2109 27.774L84.2437 28.0537V31.2181H72.8838" fill="#413000"/>
<path d="M100.004 29.665C98.2893 30.5056 95.779 31.2671 93.5062 31.2671C88.7637 31.2671 86.9708 29.3453 86.9708 24.8148V14.3157C86.9708 14.0758 86.9708 13.9148 86.6507 13.9148H83.8613V10.3482C87.3696 9.94636 88.7635 8.18266 89.202 3.81445H92.9887V9.50716C92.9887 9.78668 92.9887 9.90775 93.3079 9.90775H98.927V13.9147H92.9888V23.4925C92.9888 25.8573 93.5475 26.7783 95.6984 26.7783C96.8158 26.7783 97.9702 26.4986 98.9269 26.1376L100.004 29.665Z" fill="#413000"/>
<path d="M40.951 19.148L22.7267 0.824723C21.6782 -0.230637 19.9761 -0.230637 18.9262 0.824723L15.1421 4.63018L19.9421 9.45681C21.0579 9.07796 22.337 9.33197 23.226 10.2262C24.1197 11.1259 24.3705 12.423 23.9843 13.5488L28.6106 18.2008C29.7299 17.813 31.0212 18.0636 31.915 18.9639C33.1645 20.2199 33.1645 22.2552 31.915 23.5116C30.6653 24.7684 28.6412 24.7684 27.3909 23.5116C26.4513 22.5661 26.219 21.1781 26.6948 20.0141L22.3803 15.6755L22.3799 27.0923C22.6845 27.2439 22.972 27.4463 23.2258 27.7005C24.475 28.9564 24.475 30.9913 23.2258 32.2493C21.9764 33.5052 19.9514 33.5052 18.7032 32.2493C17.4539 30.9914 17.4539 28.9565 18.7032 27.7005C19.012 27.3905 19.3692 27.156 19.7504 26.9987V15.4759C19.369 15.3193 19.0122 15.0865 18.703 14.7741C17.7567 13.8233 17.5288 12.4268 18.0141 11.2583L13.2823 6.49942L0.787396 19.0633C-0.262465 20.1195 -0.262465 21.831 0.787396 22.8865L19.0106 41.2097C20.0597 42.2651 21.7612 42.2651 22.8119 41.2097L40.9508 22.973C42.0003 21.9172 42.0003 20.2051 40.9508 19.1495" fill="#F05133"/>
</g>
<defs>
<clipPath id="clip0_79_1613">
<rect width="100" height="42" fill="white"/>
</clipPath>
</defs>
</svg>
