<svg width="100" height="38" viewBox="0 0 100 38" fill="none" xmlns="http://www.w3.org/2000/svg">
<g clip-path="url(#clip0_79_1678)">
<path d="M7.5463 11.6916C7.35156 11.6916 7.30288 11.5951 7.40025 11.4504L8.42264 10.1479C8.52001 10.0032 8.76344 9.90674 8.95818 9.90674H26.3389C26.5336 9.90674 26.5823 10.0515 26.485 10.1962L25.6573 11.4504C25.5599 11.5951 25.3165 11.7399 25.1705 11.7399L7.5463 11.6916Z" fill="#00ACD7"/>
<path d="M0.194742 16.1296C0 16.1296 -0.0486855 16.0331 0.0486855 15.8884L1.07108 14.5859C1.16845 14.4412 1.41188 14.3447 1.60662 14.3447H23.8072C24.0019 14.3447 24.0993 14.4894 24.0506 14.6342L23.6611 15.7919C23.6125 15.9849 23.4177 16.0814 23.223 16.0814L0.194742 16.1296Z" fill="#00ACD7"/>
<path d="M11.9765 20.5676C11.7817 20.5676 11.7331 20.4229 11.8304 20.2782L12.512 19.0722C12.6094 18.9274 12.8041 18.7827 12.9989 18.7827H22.736C22.9307 18.7827 23.0281 18.9274 23.0281 19.1204L22.9307 20.2782C22.9307 20.4711 22.736 20.6158 22.5899 20.6158L11.9765 20.5676Z" fill="#00ACD7"/>
<path d="M62.5123 10.8233C59.4451 11.5951 57.3517 12.174 54.3332 12.9459C53.6029 13.1388 53.5542 13.1871 52.9213 12.4635C52.191 11.6434 51.6555 11.1127 50.6331 10.6303C47.5659 9.1349 44.5961 9.56906 41.821 11.3539C38.5104 13.4765 36.8064 16.6121 36.8551 20.5195C36.9038 24.3787 39.5815 27.5625 43.4276 28.0932C46.7382 28.5273 49.5133 27.3696 51.7041 24.9093C52.1423 24.3787 52.5318 23.7998 53.0187 23.1245C51.266 23.1245 49.0751 23.1245 43.6224 23.1245C42.6 23.1245 42.3565 22.4974 42.6973 21.6773C43.3302 20.1818 44.4987 17.6734 45.1803 16.4191C45.3264 16.1297 45.6671 15.6473 46.3974 15.6473C48.8804 15.6473 58.0333 15.6473 64.1189 15.6473C64.0216 16.9498 64.0216 18.2522 63.8268 19.5547C63.2913 23.028 61.9768 26.2118 59.8346 29.0097C56.3293 33.5925 51.7528 36.4387 45.9593 37.2105C41.1881 37.8376 36.7577 36.9211 32.8629 34.0267C29.2601 31.3253 27.2153 27.7555 26.6798 23.3174C26.0469 18.0593 27.6048 13.3318 30.8181 9.18314C34.2747 4.69683 38.8512 1.85067 44.45 0.837637C49.0264 0.0175586 53.4081 0.548197 57.3517 3.20139C59.932 4.88979 61.782 7.2053 62.9992 10.0032C63.2913 10.4374 63.0966 10.6786 62.5123 10.8233Z" fill="#00ACD7"/>
<path d="M78.6271 37.5C74.1967 37.4036 70.1558 36.1493 66.7479 33.2549C63.8754 30.7947 62.074 27.6591 61.4898 23.9446C60.6135 18.4935 62.1227 13.6695 65.4333 9.37618C68.9874 4.74515 73.2717 2.33316 79.0653 1.32012C84.0312 0.451802 88.705 0.934201 92.9406 3.78035C96.7868 6.38531 99.1724 9.90682 99.8053 14.5379C100.633 21.0502 98.7342 26.3566 94.2065 30.8912C90.9932 34.1232 87.0497 36.1493 82.5219 37.0659C81.2074 37.3071 79.8929 37.3553 78.6271 37.5ZM90.2143 18.0111C90.1656 17.384 90.1656 16.9016 90.0682 16.4192C89.1919 11.6435 84.7615 8.94202 80.1364 10.0033C75.6086 11.0163 72.6875 13.8625 71.6164 18.397C70.7401 22.1598 72.5901 25.9707 76.0955 27.5144C78.7732 28.6721 81.4509 28.5274 84.0312 27.2249C87.8774 25.2471 89.9708 22.1598 90.2143 18.0111Z" fill="#00ACD7"/>
</g>
<defs>
<clipPath id="clip0_79_1678">
<rect width="100" height="37" fill="white" transform="translate(0 0.5)"/>
</clipPath>
</defs>
</svg>
