<svg width="61" height="64" viewBox="0 0 61 64" fill="none" xmlns="http://www.w3.org/2000/svg">
<path d="M53.557 0H7.68288C4.48608 0 1.92863 2.56 1.92863 5.76V58.24C1.92863 61.44 4.48608 64 7.68288 64H53.557C56.7538 64 59.3113 61.44 59.3113 58.24V5.76C59.3113 2.56 56.7538 0 53.557 0ZM56.1145 58.24C56.1145 59.68 54.9956 60.8 53.557 60.8H7.68288C6.24432 60.8 5.12544 59.68 5.12544 58.24V5.76C5.12544 4.32 6.24432 3.2 7.68288 3.2H53.557C54.9956 3.2 56.1145 4.32 56.1145 5.76V58.24ZM16.3142 54.4L23.5071 48L16.3142 41.6V54.4ZM42.2084 28.48C40.9296 27.2 38.532 25.6 34.536 25.6C30.2203 25.6 25.7448 26.72 22.548 27.84V9.6H16.1544V37.28L20.6299 35.2C20.6299 35.2 27.9826 31.84 34.3762 31.84C37.573 31.84 38.3722 33.6 38.3722 35.2V54.4H44.7658V35.2C44.9256 34.72 44.9256 31.2 42.2084 28.48ZM33.7368 20H40.1304C43.0076 16.64 44.4461 13.28 44.9256 9.6H38.532C37.8927 13.28 36.2943 16.64 33.7368 20Z" fill="#430098"/>
</svg>
