<svg width="64" height="64" viewBox="0 0 64 64" fill="none" xmlns="http://www.w3.org/2000/svg">
<path d="M53.3923 8H40.059C39.3517 8 38.6735 8.28095 38.1734 8.78105C37.6733 9.28115 37.3923 9.95942 37.3923 10.6667C37.3923 11.3739 37.6733 12.0522 38.1734 12.5523C38.6735 13.0524 39.3517 13.3333 40.059 13.3333H44.059V29.3333H30.8592C32.623 27.0385 33.5839 24.2277 33.5941 21.3333C33.594 18.3983 32.6255 15.5452 30.8387 13.2167C29.0519 10.8881 26.5467 9.2142 23.7117 8.45454C20.8766 7.69489 17.8701 7.89193 15.1584 9.01511C12.4467 10.1383 10.1814 12.1248 8.71386 14.6667C8.53663 14.9699 8.42107 15.3052 8.37383 15.6533C8.32659 16.0013 8.3486 16.3553 8.43858 16.6948C8.52857 17.0344 8.68476 17.3528 8.89819 17.6317C9.11162 17.9107 9.37807 18.1448 9.68223 18.3204C9.9864 18.4961 10.3223 18.6099 10.6706 18.6554C11.0189 18.7008 11.3727 18.677 11.7118 18.5853C12.0508 18.4936 12.3684 18.3357 12.6463 18.1209C12.9242 17.906 13.1569 17.6384 13.331 17.3333C14.033 16.117 15.0429 15.1069 16.2591 14.4045C17.4752 13.7022 18.8549 13.3324 20.2593 13.3322C21.6637 13.3321 23.0434 13.7016 24.2597 14.4037C25.476 15.1058 26.4861 16.1156 27.1884 17.3318C27.8908 18.548 28.2606 19.9276 28.2607 21.332C28.2608 22.7365 27.8913 24.1161 27.1892 25.3325C26.4871 26.5488 25.4772 27.5588 24.261 28.2611C23.0448 28.9634 21.6651 29.3332 20.2607 29.3333C19.5535 29.3333 18.8752 29.6143 18.3751 30.1144C17.875 30.6145 17.5941 31.2928 17.5941 32C17.5941 32.7072 17.875 33.3855 18.3751 33.8856C18.8752 34.3857 19.5535 34.6667 20.2607 34.6667C21.665 34.6669 23.0444 35.0368 24.2604 35.7391C25.4763 36.4415 26.486 37.4515 27.188 38.6677C27.8899 39.8839 28.2594 41.2634 28.2592 42.6676C28.259 44.0719 27.8892 45.4513 27.187 46.6673C26.4848 47.8834 25.4748 48.8931 24.2587 49.5952C23.0425 50.2972 21.663 50.6667 20.2588 50.6667C18.8546 50.6666 17.4751 50.2969 16.259 49.5948C15.0429 48.8926 14.0331 47.8828 13.331 46.6667C12.9762 46.0566 12.3941 45.6122 11.7121 45.4306C11.0302 45.2491 10.3041 45.3454 9.69304 45.6983C9.08196 46.0512 8.63574 46.6321 8.45218 47.3134C8.26862 47.9948 8.3627 48.7212 8.7138 49.3333C10.1814 51.8752 12.4467 53.8618 15.1584 54.985C17.87 56.1082 20.8766 56.3052 23.7117 55.5456C26.5468 54.7859 29.052 53.112 30.8387 50.7834C32.6255 48.4548 33.594 45.6018 33.5941 42.6667C33.5839 39.7723 32.623 36.9615 30.8592 34.6667H44.059V53.3333C44.059 54.0406 44.3399 54.7189 44.84 55.219C45.3401 55.7191 46.0184 56 46.7256 56C47.4329 56 48.1112 55.7191 48.6113 55.219C49.1114 54.7189 49.3923 54.0406 49.3923 53.3333V13.3333H53.3923C54.0996 13.3333 54.7778 13.0524 55.2779 12.5523C55.778 12.0522 56.059 11.3739 56.059 10.6667C56.059 9.95942 55.778 9.28115 55.2779 8.78105C54.7778 8.28095 54.0996 8 53.3923 8Z" fill="black"/>
</svg>
