<svg width="55" height="100" viewBox="0 0 55 100" fill="none" xmlns="http://www.w3.org/2000/svg">
<path d="M52.2691 78.3538H51.8955V78.1465H52.9013V78.3538H52.5302V79.3879H52.2691V78.3538ZM54.2752 78.4078H54.2693L53.8992 79.3881H53.7298L53.362 78.4078H53.3574V79.3881H53.1114V78.1467H53.4735L53.8145 79.0258L54.1544 78.1467H54.5152V79.3881H54.275L54.2752 78.4078Z" fill="#5382A1"/>
<path d="M18.8249 52.9678C18.8249 52.9678 16.2256 54.4669 20.6747 54.9741C26.0647 55.584 28.8195 55.4965 34.7593 54.3816C34.7593 54.3816 36.3209 55.3527 38.5019 56.1938C25.1864 61.8534 8.36626 55.866 18.8249 52.9678Z" fill="#5382A1"/>
<path d="M17.198 45.5825C17.198 45.5825 14.2826 47.7227 18.735 48.1794C24.4928 48.7685 29.0398 48.8167 36.908 47.3142C36.908 47.3142 37.9962 48.4083 39.7075 49.0067C23.6082 53.6754 5.67657 49.3749 17.198 45.5825Z" fill="#5382A1"/>
<path d="M30.9146 33.0544C34.1955 36.8005 30.0526 40.1716 30.0526 40.1716C30.0526 40.1716 38.3834 35.9065 34.5574 30.5656C30.9841 25.5849 28.2438 23.1102 43.0786 14.5776C43.0786 14.5776 19.7929 20.3453 30.9146 33.0544Z" fill="#F8981D"/>
<path d="M48.5254 58.4309C48.5254 58.4309 50.4489 60.0027 46.407 61.2187C38.7211 63.5278 14.4175 64.2251 7.66608 61.3107C5.23911 60.2636 9.79036 58.8105 11.222 58.5056C12.7151 58.1845 13.5683 58.2443 13.5683 58.2443C10.8693 56.3587 -3.87714 61.9469 6.07786 63.5473C33.2266 67.9136 55.5674 61.5811 48.5254 58.4309Z" fill="#5382A1"/>
<path d="M20.0747 37.9304C20.0747 37.9304 7.71234 40.8424 15.6969 41.8999C19.0682 42.3475 25.7888 42.2462 32.0489 41.726C37.165 41.298 42.3022 40.388 42.3022 40.388C42.3022 40.388 40.4982 41.1542 39.1931 42.038C26.6393 45.3124 2.38779 43.7891 9.36949 40.4399C15.2739 37.6093 20.0747 37.9304 20.0747 37.9304Z" fill="#5382A1"/>
<path d="M42.2516 50.224C55.0131 43.6474 49.1127 37.3274 44.9943 38.1789C43.9848 38.3872 43.5347 38.5678 43.5347 38.5678C43.5347 38.5678 43.9095 37.9856 44.6252 37.7336C52.7727 34.8929 59.0387 46.112 41.9951 50.5554C41.9951 50.5554 42.1926 50.3805 42.2516 50.224Z" fill="#5382A1"/>
<path d="M34.5572 0.799805C34.5572 0.799805 41.6247 7.81126 27.854 18.5929C16.8113 27.2416 25.3359 32.1729 27.8494 37.8071C21.4036 32.0394 16.6732 26.9622 19.8467 22.2367C24.5047 15.3002 37.4088 11.9371 34.5572 0.799805Z" fill="#F8981D"/>
<path d="M21.3288 68.0449C33.5782 68.8225 52.3886 67.6134 52.8341 61.8652C52.8341 61.8652 51.9777 64.0443 42.7106 65.7749C32.2554 67.7261 19.3605 67.4983 11.7124 66.2478C11.7124 66.2478 13.2781 67.5329 21.3288 68.0449Z" fill="#5382A1"/>
<path d="M19.3213 90.0087C18.1658 91.0027 16.9453 91.5607 15.8501 91.5607C14.2868 91.5607 13.4422 90.6311 13.4422 89.14C13.4422 87.5271 14.3471 86.3478 17.9777 86.3478H19.3211L19.3213 90.0087ZM22.5099 93.5765V82.5325C22.5099 79.7112 20.8874 77.8496 16.9754 77.8496C14.6916 77.8496 12.6911 78.4089 11.0651 79.1222L11.5344 81.0771C12.8146 80.6111 14.4718 80.1772 16.0983 80.1772C18.3519 80.1772 19.3213 81.0771 19.3213 82.9374V84.3332H18.1966C12.7213 84.3332 10.2515 86.4411 10.2515 89.6049C10.2515 92.3352 11.8791 93.8872 14.9437 93.8872C16.9136 93.8872 18.3841 93.0807 19.7588 91.9003L20.0083 93.5767L22.5099 93.5765Z" fill="#5382A1"/>
<path d="M33.1512 93.5767H29.1743L24.3882 78.1294H27.8611L30.8309 87.6203L31.4911 90.4747C32.9935 86.3478 34.0561 82.1608 34.5876 78.1294H37.9659C37.0607 83.2161 35.432 88.7994 33.1512 93.5767Z" fill="#5382A1"/>
<path d="M48.4067 90.0087C47.249 91.0027 46.0263 91.5607 44.9311 91.5607C43.3706 91.5607 42.5237 90.6311 42.5237 89.14C42.5237 87.5271 43.4309 86.3478 47.0611 86.3478H48.4067V90.0087ZM51.5949 93.5765V82.5325C51.5949 79.7112 49.9684 77.8496 46.061 77.8496C43.7755 77.8496 41.7743 78.4089 40.149 79.1222L40.6176 81.0771C41.8984 80.6111 43.5587 80.1772 45.1839 80.1772C47.4358 80.1772 48.4067 81.0771 48.4067 82.9374V84.3332H47.2801C41.8032 84.3332 39.3345 86.4411 39.3345 89.6049C39.3345 92.3352 40.9608 93.8872 44.0249 93.8872C45.9959 93.8872 47.4659 93.0807 48.8429 91.9003L49.0933 93.5767L51.5949 93.5765Z" fill="#5382A1"/>
<path d="M6.75544 96.1999C5.84648 97.5161 4.37834 98.5574 2.77106 99.1465L1.19678 97.3092C2.42016 96.6867 3.46938 95.6812 3.95686 94.7446C4.37853 93.9117 4.55306 92.8383 4.55306 90.2712V72.6357H7.94069V90.0296C7.94051 93.4616 7.66386 94.8479 6.75544 96.1999Z" fill="#5382A1"/>
</svg>
