<svg width="64" height="52" viewBox="0 0 64 52" fill="none" xmlns="http://www.w3.org/2000/svg">
<g clip-path="url(#clip0_79_3884)">
<path d="M31.014 48.9467C38.1251 48.9467 43.9395 47.8592 48.4571 45.684C52.9628 43.4969 56.2734 40.2819 58.3888 36.0392C60.5162 31.7964 61.5798 26.5975 61.5798 20.4425C61.5798 17.0961 61.1735 14.1262 60.3608 11.5327C59.56 8.92732 58.3051 6.8657 56.5961 5.34787C54.899 3.81808 52.676 3.05319 49.9272 3.05319C47.5369 3.05319 45.6545 3.75832 44.2801 5.16859C42.9057 6.56691 42.2185 8.4911 42.2185 10.9411C42.2185 13.0924 42.7444 14.9449 43.7961 16.4986C44.8359 18.0523 46.27 19.3848 48.0986 20.4963C49.9152 21.5959 51.9888 22.5938 54.3193 23.4902V25.2829H26.6218V23.042H49.0308C47.2979 22.3847 45.7322 21.5182 44.3339 20.4425C42.9236 19.3669 41.8181 18.0403 41.0174 16.4627C40.2047 14.8732 39.7983 13.0028 39.7983 10.8515C39.7983 8.99903 40.1867 7.31388 40.9636 5.79605C41.7404 4.26626 42.8937 3.04124 44.4235 2.12098C45.9414 1.18876 47.8058 0.722656 50.0168 0.722656C52.9449 0.722656 55.4547 1.5473 57.5462 3.1966C59.6377 4.83395 61.2332 7.13461 62.3328 10.0986C63.4443 13.0506 64 16.5284 64 20.5322C64 27.1652 62.775 32.7705 60.3249 37.3479C57.8749 41.9133 54.2177 45.3792 49.3535 47.7456C44.4773 50.1001 38.3641 51.2773 31.014 51.2773C24.2017 51.2773 18.4949 50.0523 13.8936 47.6022C9.29225 45.1522 5.82633 41.7639 3.4958 37.4375C1.16527 33.0991 0 28.1811 0 22.6834C0 17.7236 0.687208 13.6183 2.06162 10.3675C3.43604 7.10473 5.28852 4.68456 7.61905 3.10697C9.94958 1.51743 12.549 0.722656 15.4174 0.722656C17.3894 0.722656 19.1402 1.15888 20.67 2.03134C22.1879 2.89184 23.383 4.08699 24.2555 5.61677C25.116 7.13461 25.5462 8.93928 25.5462 11.0308C25.5462 13.0625 25.098 14.9449 24.2017 16.6778C23.3053 18.4108 21.901 19.8151 19.9888 20.8907C18.0766 21.9664 15.5369 22.5042 12.3697 22.5042C10.577 22.5042 8.93371 22.2353 7.43978 21.6974C5.94585 21.1596 4.64314 20.5202 3.53165 19.7792C2.43212 19.0263 1.61345 18.3212 1.07563 17.6638L1.43417 15.2437C2.21102 16.0803 3.1253 16.887 4.17703 17.6638C5.21681 18.4407 6.4239 19.0562 7.79832 19.5103C9.17274 19.9525 10.6965 20.1736 12.3697 20.1736C16.254 20.1736 19.0207 19.3072 20.67 17.5742C22.3074 15.8412 23.126 13.69 23.126 11.1204C23.126 8.78988 22.4687 6.8657 21.1541 5.34787C19.8394 3.81808 17.8674 3.05319 15.2381 3.05319C11.1746 3.05319 8.0254 4.78615 5.79048 8.25207C3.5436 11.718 2.42017 16.4687 2.42017 22.5042V22.9523C2.42017 26.7171 3.00579 30.183 4.17703 33.3501C5.33632 36.5172 7.09916 39.2661 9.46555 41.5966C11.82 43.9271 14.7899 45.7378 18.3754 47.0285C21.9608 48.3073 26.1737 48.9467 31.014 48.9467Z" fill="black"/>
</g>
<defs>
<clipPath id="clip0_79_3884">
<rect width="64" height="50.5546" fill="white" transform="translate(0 0.722656)"/>
</clipPath>
</defs>
</svg>
