<svg width="64" height="64" viewBox="0 0 64 64" fill="none" xmlns="http://www.w3.org/2000/svg">
<path d="M17.3333 21.334C19.5425 21.334 21.3333 19.5431 21.3333 17.334C21.3333 15.1248 19.5425 13.334 17.3333 13.334C15.1242 13.334 13.3333 15.1248 13.3333 17.334C13.3333 19.5431 15.1242 21.334 17.3333 21.334Z" fill="#F9EBFF"/>
<path d="M13.3333 26.6667C13.3333 25.1939 14.5273 24 16 24H18.6667C20.1394 24 21.3333 25.1939 21.3333 26.6667V48C21.3333 49.4728 20.1394 50.6667 18.6667 50.6667H16C14.5273 50.6667 13.3333 49.4728 13.3333 48V26.6667Z" fill="#F9EBFF"/>
<path d="M29.3333 50.6667H32C33.4728 50.6667 34.6667 49.4728 34.6667 48V36C34.6667 32 42.6667 29.3333 42.6667 34.6667V48.0011C42.6667 49.4739 43.8605 50.6667 45.3333 50.6667H48C49.4728 50.6667 50.6667 49.4728 50.6667 48V32C50.6667 26.6667 46.6667 24 41.3333 24C36 24 34.6667 28 34.6667 28V26.6667C34.6667 25.1939 33.4728 24 32 24H29.3333C27.8605 24 26.6667 25.1939 26.6667 26.6667V48C26.6667 49.4728 27.8605 50.6667 29.3333 50.6667Z" fill="#F9EBFF"/>
<path fill-rule="evenodd" clip-rule="evenodd" d="M53.3333 2.66602C57.7517 2.66602 61.3333 6.24775 61.3333 10.666V53.3327C61.3333 57.7511 57.7517 61.3327 53.3333 61.3327H10.6667C6.2484 61.3327 2.66666 57.7511 2.66666 53.3327V10.666C2.66666 6.24775 6.2484 2.66602 10.6667 2.66602H53.3333ZM53.3333 7.99935C54.8061 7.99935 56 9.19327 56 10.666V53.3327C56 54.8055 54.8061 55.9994 53.3333 55.9994H10.6667C9.19392 55.9994 8 54.8055 8 53.3327V10.666C8 9.19327 9.19392 7.99935 10.6667 7.99935H53.3333Z" fill="#F9EBFF"/>
</svg>
