<svg width="101" height="100" viewBox="0 0 101 100" fill="none" xmlns="http://www.w3.org/2000/svg">
<g clip-path="url(#clip0_79_1733)">
<path d="M84.875 75C83.4824 75.007 82.1093 75.3284 80.8581 75.94L67.4191 62.5H56.75V68.75H64.8309L76.4391 80.3587C75.8284 81.61 75.5075 82.9827 75.5 84.375C75.5 86.2292 76.0498 88.0418 77.08 89.5835C78.1101 91.1252 79.5743 92.3268 81.2873 93.0364C83.0004 93.7459 84.8854 93.9316 86.704 93.5699C88.5225 93.2081 90.193 92.3152 91.5041 91.0041C92.8152 89.693 93.7081 88.0225 94.0699 86.204C94.4316 84.3854 94.2459 82.5004 93.5364 80.7873C92.8268 79.0743 91.6252 77.6101 90.0835 76.58C88.5418 75.5498 86.7292 75 84.875 75ZM84.875 87.5C84.2569 87.5 83.6527 87.3167 83.1388 86.9733C82.6249 86.63 82.2244 86.1419 81.9879 85.5709C81.7514 84.9999 81.6895 84.3715 81.81 83.7653C81.9306 83.1591 82.2283 82.6023 82.6653 82.1653C83.1023 81.7283 83.6592 81.4306 84.2653 81.31C84.8715 81.1895 85.4999 81.2514 86.0709 81.4879C86.6419 81.7244 87.13 82.1249 87.4733 82.6388C87.8167 83.1527 88 83.7569 88 84.375C87.9993 85.2036 87.6698 85.998 87.0839 86.5839C86.498 87.1698 85.7036 87.4993 84.875 87.5Z" fill="black"/>
<path d="M84.875 40.625C82.9425 40.6309 81.0592 41.2348 79.4838 42.3538C77.9083 43.4729 76.7178 45.0523 76.0759 46.875H56.75V53.125H76.0759C76.6518 54.7409 77.6607 56.1674 78.9924 57.2486C80.3241 58.3299 81.9274 59.0243 83.6271 59.2561C85.3267 59.4878 87.0574 59.2479 88.63 58.5626C90.2025 57.8773 91.5565 56.773 92.5439 55.3703C93.5313 53.9676 94.1142 52.3204 94.2288 50.6089C94.3435 48.8973 93.9855 47.1872 93.194 45.6653C92.4024 44.1434 91.2079 42.8684 89.7407 41.9795C88.2736 41.0906 86.5904 40.622 84.875 40.625ZM84.875 53.125C84.2569 53.125 83.6527 52.9417 83.1388 52.5984C82.6249 52.255 82.2244 51.7669 81.9879 51.1959C81.7514 50.6249 81.6895 49.9965 81.81 49.3904C81.9306 48.7842 82.2283 48.2273 82.6653 47.7903C83.1023 47.3533 83.6591 47.0556 84.2653 46.9351C84.8715 46.8145 85.4999 46.8764 86.0709 47.1129C86.6419 47.3494 87.13 47.75 87.4733 48.2639C87.8167 48.7778 88 49.3819 88 50C87.9993 50.8286 87.6698 51.623 87.0839 52.2089C86.498 52.7948 85.7036 53.1243 84.875 53.125Z" fill="black"/>
<path d="M84.875 6.25C82.3894 6.25273 80.0065 7.24133 78.2489 8.99889C76.4913 10.7565 75.5027 13.1394 75.5 15.625C75.5107 17.1221 75.884 18.5943 76.5878 19.9156L64.8616 31.25H56.75V37.5H67.3884L81.135 24.2113C82.412 24.7679 83.7971 25.0328 85.1894 24.9867C86.5817 24.9407 87.9462 24.5848 89.1837 23.9449C90.4211 23.305 91.5003 22.3974 92.3427 21.2879C93.1852 20.1784 93.7696 18.8951 94.0536 17.5312C94.3376 16.1674 94.3139 14.7574 93.9844 13.4039C93.6548 12.0504 93.0276 10.7874 92.1484 9.7068C91.2692 8.62621 90.1602 7.75523 88.902 7.15725C87.6438 6.55927 86.2681 6.24934 84.875 6.25ZM84.875 18.75C84.2569 18.75 83.6527 18.5667 83.1388 18.2233C82.6249 17.88 82.2244 17.3919 81.9879 16.8209C81.7514 16.2499 81.6895 15.6215 81.81 15.0153C81.9306 14.4092 82.2283 13.8523 82.6653 13.4153C83.1023 12.9783 83.6591 12.6806 84.2653 12.56C84.8715 12.4395 85.4999 12.5014 86.0709 12.7379C86.6419 12.9744 87.13 13.3749 87.4733 13.8888C87.8167 14.4027 88 15.0069 88 15.625C87.9993 16.4536 87.6698 17.248 87.0839 17.8339C86.498 18.4198 85.7036 18.7493 84.875 18.75Z" fill="black"/>
<path d="M56.75 18.75H63V12.5H56.75C54.969 12.506 53.2102 12.8948 51.5926 13.6401C49.9751 14.3854 48.5367 15.4698 47.375 16.8197C46.2133 15.4698 44.7749 14.3854 43.1574 13.6401C41.5398 12.8948 39.781 12.506 38 12.5H34.875C27.4183 12.5083 20.2694 15.4741 14.9968 20.7468C9.72409 26.0194 6.75827 33.1683 6.75 40.625V59.375C6.75827 66.8317 9.72409 73.9806 14.9968 79.2532C20.2694 84.5259 27.4183 87.4917 34.875 87.5H38C39.781 87.494 41.5398 87.1052 43.1574 86.3599C44.7749 85.6146 46.2133 84.5302 47.375 83.1803C48.5367 84.5302 49.9751 85.6146 51.5926 86.3599C53.2102 87.1052 54.969 87.494 56.75 87.5H63V81.25H56.75C55.093 81.2481 53.5044 80.589 52.3327 79.4173C51.161 78.2456 50.5019 76.657 50.5 75V25C50.5019 23.343 51.161 21.7544 52.3327 20.5827C53.5044 19.411 55.093 18.7519 56.75 18.75ZM38 81.25H34.875C29.6201 81.2408 24.5438 79.3415 20.5735 75.899C16.6032 72.4565 14.0037 67.7006 13.25 62.5H19.25V56.25H13V43.75H22.375C24.8606 43.7473 27.2435 42.7587 29.0011 41.0011C30.7587 39.2435 31.7473 36.8606 31.75 34.375V28.125H25.5V34.375C25.4993 35.2036 25.1698 35.998 24.5839 36.5839C23.998 37.1698 23.2036 37.4993 22.375 37.5H13.25C14.0037 32.2994 16.6032 27.5435 20.5735 24.101C24.5438 20.6585 29.6201 18.7592 34.875 18.75H38C39.657 18.7519 41.2456 19.411 42.4173 20.5827C43.589 21.7544 44.2481 23.343 44.25 25V37.5H38V43.75H44.25V56.25H38C35.5144 56.2527 33.1315 57.2413 31.3739 58.9989C29.6163 60.7565 28.6277 63.1394 28.625 65.625V71.875H34.875V65.625C34.8757 64.7964 35.2052 64.002 35.7911 63.4161C36.377 62.8302 37.1714 62.5007 38 62.5H44.25V75C44.2481 76.657 43.589 78.2456 42.4173 79.4173C41.2456 80.589 39.657 81.2481 38 81.25Z" fill="black"/>
</g>
<defs>
<clipPath id="clip0_79_1733">
<rect width="100" height="100" fill="white" transform="translate(0.5)"/>
</clipPath>
</defs>
</svg>
