<svg width="64" height="64" viewBox="0 0 64 64" fill="none" xmlns="http://www.w3.org/2000/svg">
<path d="M63.8433 13.7951C63.5773 12.4508 62.9775 11.1803 62.1025 10.1122C61.9248 9.88794 61.7389 9.68844 61.5356 9.48606C59.9789 7.92106 57.8134 7.02344 55.5942 7.02344H8.4055C6.16163 7.02344 4.05125 7.89844 2.46312 9.48694C2.26213 9.68744 2.07575 9.88894 1.89125 10.1203C1.02 11.1839 0.422875 12.4527 0.16325 13.7988C0.05475 14.3274 0 14.8752 0 15.4293V48.5714C0 49.7244 0.23425 50.8472 0.698625 51.9146C1.1005 52.8624 1.71025 53.7611 2.46263 54.5131C2.65213 54.7017 2.84037 54.8757 3.04137 55.0453C4.54562 56.2911 6.45038 56.9766 8.4055 56.9766H55.5942C57.562 56.9766 59.4649 56.2884 60.9651 55.0316C61.1656 54.8693 61.3515 54.6989 61.5374 54.5131C62.2646 53.7866 62.8426 52.9518 63.2581 52.0313L63.3129 51.9001C63.7686 50.8529 64 49.7338 64 48.5716V15.4293C64 14.8824 63.9473 14.3311 63.8433 13.7951ZM4.35288 12.3879C4.47175 12.2139 4.6235 12.0353 4.81712 11.8402C5.77825 10.8796 7.05287 10.3509 8.40537 10.3509H55.5941C56.9585 10.3509 58.2335 10.8804 59.184 11.8421C59.3481 12.0079 59.5049 12.1921 59.6416 12.3761L60.0025 12.8611L34.815 34.8131C34.0385 35.4938 33.0387 35.8684 31.9996 35.8684C30.9707 35.8684 29.9719 35.4947 29.1861 34.8139L4.02375 12.8673L4.35288 12.3879ZM3.34437 48.8641C3.33075 48.7738 3.32763 48.6736 3.32763 48.5714V16.1156L22.8739 33.1669L3.52487 50.0371L3.34437 48.8641ZM58.1124 52.9799C57.3559 53.4164 56.4846 53.6479 55.5942 53.6479H8.4055C7.51463 53.6479 6.64375 53.4164 5.88775 52.9799L5.09675 52.5214L25.0888 35.0991L27.2798 37.0048C28.594 38.1458 30.27 38.7748 31.9999 38.7748C33.7361 38.7748 35.4149 38.1458 36.7282 37.0048L38.9184 35.0982L58.9035 52.5224L58.1124 52.9799ZM60.6715 48.5714C60.6715 48.6718 60.6696 48.7711 60.657 48.8594L60.4837 50.0434L41.1265 33.1761L60.6715 16.1238V48.5714Z" fill="#F9EBFF"/>
</svg>
