<svg width="100" height="28" viewBox="0 0 100 28" fill="none" xmlns="http://www.w3.org/2000/svg">
<g clip-path="url(#clip0_79_1601)">
<path d="M12.0831 11.3304C10.707 5.25177 7.83901 3.63358 7.1074 2.48968C6.80571 1.98576 6.53846 1.46196 6.30748 0.921875C6.26883 1.46188 6.19782 1.80208 5.73944 2.21158C4.81908 3.03328 0.910258 6.22288 0.581301 13.1295C0.274815 19.569 5.30892 23.5398 5.97403 23.9502C6.48544 24.2022 7.1083 23.9556 7.41209 23.7243C9.83881 22.0566 13.1544 17.6106 12.0858 11.3304" fill="#10AA50"/>
<path d="M6.51632 20.5215C6.38959 22.1154 6.29882 23.0415 5.97705 23.9523C5.97705 23.9523 6.18827 25.4697 6.33657 27.0771H6.86146C6.98666 25.9452 7.17783 24.8216 7.43399 23.712C6.7545 23.3772 6.54239 21.9201 6.51632 20.5215Z" fill="#B8C4C2"/>
<path d="M7.43289 23.713C6.74622 23.3953 6.54759 21.9076 6.51703 20.5216C6.68685 18.2353 6.73635 15.9416 6.66533 13.6501C6.62938 12.4477 6.68241 2.51348 6.36963 1.05908C6.58359 1.55167 6.8301 2.02943 7.10753 2.48918C7.83915 3.63398 10.7081 5.25218 12.0832 11.3308C13.1546 17.6002 9.85692 22.0345 7.43289 23.713Z" fill="#12924F"/>
<path d="M97.9406 21.515C97.6466 21.515 97.3592 21.4279 97.1144 21.2647C96.8697 21.1016 96.6786 20.8696 96.5652 20.598C96.4517 20.3263 96.421 20.0272 96.4769 19.7381C96.5328 19.4491 96.6727 19.183 96.8792 18.9734C97.0857 18.7638 97.3494 18.62 97.6373 18.5601C97.9252 18.5001 98.2243 18.5268 98.4971 18.6366C98.7699 18.7465 99.0042 18.9346 99.1705 19.1774C99.3368 19.4202 99.4277 19.7068 99.4317 20.0012C99.4371 20.1997 99.4023 20.3972 99.3295 20.582C99.2568 20.7667 99.1475 20.9348 99.0082 21.0762C98.869 21.2175 98.7026 21.3293 98.5192 21.4047C98.3357 21.4801 98.1389 21.5176 97.9406 21.515ZM97.9406 18.6638C97.672 18.662 97.4089 18.7401 97.1846 18.8882C96.9603 19.0363 96.785 19.2477 96.6808 19.4956C96.5766 19.7436 96.5482 20.0169 96.5992 20.2811C96.6503 20.5452 96.7785 20.7882 96.9676 20.9793C97.1566 21.1704 97.3981 21.301 97.6614 21.3546C97.9246 21.4081 98.1979 21.3823 98.4464 21.2802C98.695 21.1782 98.9078 21.0046 99.0577 20.7814C99.2077 20.5582 99.2881 20.2954 99.2888 20.0264C99.2923 19.8476 99.2599 19.6698 99.1936 19.5038C99.1272 19.3377 99.0283 19.1867 98.9025 19.0596C98.7768 18.9325 98.6269 18.832 98.4617 18.764C98.2964 18.696 98.1193 18.662 97.9406 18.6638ZM98.3002 20.966L97.9155 20.1353H97.6054V20.966H97.3798V19.076H97.9362C98.3505 19.076 98.5231 19.256 98.5231 19.6043C98.5231 19.8815 98.3927 20.0543 98.1501 20.1074L98.5473 20.9633L98.3002 20.966ZM97.6144 19.94H97.9406C98.2049 19.94 98.3056 19.85 98.3056 19.6088C98.3056 19.3676 98.2094 19.2857 97.9119 19.2857H97.6144V19.94Z" fill="#21313C"/>
<path d="M75.7488 20.154C76.1524 20.4771 76.9586 20.6103 77.6695 20.6103C78.5908 20.6103 79.4941 20.4393 80.3767 19.641C81.2755 18.8229 81.8938 17.571 81.8938 15.5721C81.8938 13.6515 81.164 12.0927 79.6666 11.1801C78.8218 10.6482 77.727 10.4385 76.4786 10.4385C76.1191 10.4385 75.7488 10.4574 75.5385 10.5528C75.4523 10.621 75.3912 10.716 75.365 10.8228C75.3273 11.1648 75.3273 13.7694 75.3273 15.3093C75.3273 16.8879 75.3273 19.0893 75.365 19.3593C75.3848 19.5879 75.4999 19.9893 75.7488 20.1576M71.9164 9.5835C72.2427 9.5835 73.483 9.6402 74.06 9.6402C75.1385 9.6402 75.8836 9.5835 77.8996 9.5835C79.5893 9.5835 81.0112 10.0398 82.0278 10.9137C83.2573 11.9793 83.9152 13.4616 83.9152 15.2679C83.9152 17.8347 82.7468 19.3179 81.5721 20.154C80.4036 21.0288 78.8838 21.5229 76.7186 21.5229C75.5664 21.5229 73.5881 21.4851 71.9371 21.4662H71.9029C71.8256 21.3141 72.044 20.721 72.1788 20.7057C72.6282 20.6553 72.7469 20.6373 72.9536 20.5518C73.3023 20.4087 73.3841 20.2305 73.4228 19.6032C73.4803 18.4242 73.4614 17.0175 73.4614 15.42C73.4614 14.2797 73.4803 12.0549 73.4425 11.3511C73.3841 10.7625 73.136 10.6104 72.6336 10.4961C72.2773 10.4203 71.9173 10.3632 71.5551 10.3251C71.5173 10.2108 71.8121 9.6951 71.9083 9.5835" fill="#21313C"/>
<path d="M88.6744 10.5487C88.5981 10.5676 88.5019 10.7584 88.5019 10.8529C88.4821 11.5378 88.4632 13.3243 88.4632 14.56C88.4681 14.5836 88.4798 14.6053 88.4969 14.6222C88.514 14.6392 88.5358 14.6507 88.5594 14.6554C88.8084 14.6743 89.4231 14.6941 89.9417 14.6941C90.6716 14.6941 91.094 14.5987 91.3241 14.4844C91.9388 14.1802 92.2229 13.5142 92.2229 12.7924C92.2229 11.1382 91.0706 10.5109 89.362 10.5109C89.131 10.508 88.9001 10.5206 88.6709 10.5487M93.03 18.1537C93.03 16.4806 91.8004 15.5302 89.5535 15.5302C89.4582 15.5302 88.7446 15.5113 88.5747 15.5491C88.5172 15.568 88.4596 15.6058 88.4596 15.6445C88.4596 16.8424 88.4399 18.7621 88.4983 19.5226C88.5369 19.8457 88.7679 20.302 89.0546 20.4352C89.362 20.6062 90.0532 20.644 90.5331 20.644C91.858 20.644 93.03 19.9033 93.03 18.1537ZM85.2051 9.61719C85.3786 9.61719 85.8891 9.67389 87.195 9.67389C88.4237 9.67389 89.4222 9.63609 90.6104 9.63609C92.0889 9.63609 94.1238 10.1689 94.1238 12.3739C94.1238 13.4539 93.3562 14.3323 92.3577 14.7508C92.3002 14.7697 92.3002 14.8075 92.3577 14.8264C93.7787 15.1864 95.0262 16.0621 95.0262 17.7352C95.0262 19.3705 94.0088 20.3974 92.5302 21.0436C91.6315 21.4432 90.5143 21.5755 89.3845 21.5755C88.5208 21.5755 86.2055 21.4855 84.9184 21.4999C84.7836 21.4432 85.0416 20.8339 85.1566 20.7394C85.4515 20.7303 85.744 20.6844 86.0275 20.6026C86.4877 20.4892 86.5425 20.3407 86.6001 19.6558C86.6387 19.0663 86.6387 16.9558 86.6387 15.4537C86.6387 13.3999 86.6585 12.013 86.6387 11.3281C86.6198 10.7962 86.4275 10.6243 86.0626 10.5298C85.775 10.4722 85.295 10.4155 84.9112 10.3588C84.8151 10.2634 85.1108 9.69279 85.206 9.61719" fill="#21313C"/>
<path d="M16.3357 21.5152C16.2862 21.3935 16.2662 21.2618 16.2773 21.1309C16.273 21.0416 16.2932 20.9529 16.3357 20.8744C16.584 20.8385 16.8301 20.7883 17.0727 20.7241C17.4124 20.6395 17.5401 20.4541 17.5598 20.0203C17.6156 18.9952 17.6191 17.0719 17.5994 15.7201V15.6805C17.5994 15.5347 17.5994 15.3367 17.4196 15.1972C17.1037 14.9987 16.7607 14.8471 16.4013 14.7472C16.2404 14.6995 16.1514 14.6149 16.1559 14.5159C16.1604 14.4169 16.262 14.2999 16.4714 14.2585C17.0277 14.2018 18.4856 13.8535 19.0581 13.5889C19.1171 13.6658 19.1444 13.7624 19.1345 13.8589C19.1345 13.9183 19.1255 13.9813 19.1192 14.0461C19.103 14.2369 19.0851 14.4538 19.0851 14.6698C19.0886 14.696 19.0994 14.7207 19.1162 14.7412C19.133 14.7616 19.1551 14.777 19.1802 14.7855C19.2052 14.794 19.2321 14.7953 19.2579 14.7894C19.2836 14.7834 19.3072 14.7703 19.3259 14.7517C20.4162 13.8958 21.3932 13.5907 21.8938 13.5907C22.718 13.5907 23.3597 13.9849 23.8567 14.7967C23.8681 14.8163 23.8844 14.8326 23.9039 14.8441C23.9234 14.8556 23.9455 14.8619 23.9682 14.8624C23.9888 14.8622 24.009 14.857 24.0272 14.8473C24.0453 14.8376 24.0608 14.8236 24.0724 14.8066C25.0746 14.0452 26.0678 13.5907 26.7329 13.5907C28.3039 13.5907 29.2432 14.7688 29.2432 16.7407C29.2432 17.3077 29.2378 18.0268 29.2324 18.6973C29.2279 19.2859 29.2234 19.8376 29.2234 20.2192C29.2234 20.3092 29.3474 20.5684 29.5335 20.6197C29.7636 20.7322 30.0952 20.7898 30.515 20.8618H30.5311C30.5626 20.9752 30.4961 21.4153 30.4323 21.5053C30.328 21.5053 30.1842 21.4963 30.0044 21.4873C29.6782 21.4711 29.2306 21.4486 28.7102 21.4486C27.6658 21.4486 27.1202 21.4684 26.5989 21.5026C26.5594 21.3721 26.5459 20.9509 26.5935 20.8627C26.8094 20.8289 27.0231 20.7823 27.2335 20.7232C27.566 20.6134 27.6622 20.4622 27.6829 20.0203C27.691 19.7062 27.7512 16.9387 27.6442 16.2817C27.5454 15.6004 27.033 14.803 25.9123 14.803C25.4961 14.803 24.8247 14.9767 24.1848 15.4627C24.1451 15.5077 24.1228 15.5655 24.1219 15.6256V15.6391C24.1974 15.9937 24.1974 16.4077 24.1974 17.0332C24.1974 17.3932 24.1974 17.7685 24.1929 18.1438C24.1884 18.907 24.1848 19.627 24.1974 20.1715C24.1974 20.5423 24.4212 20.6314 24.6018 20.7025C24.6998 20.7241 24.7771 20.743 24.8553 20.761C25.0054 20.7979 25.1618 20.8357 25.3946 20.8726C25.429 21.0307 25.4259 21.1947 25.3856 21.3514C25.376 21.4102 25.353 21.466 25.3182 21.5143C24.7375 21.4945 24.1417 21.4774 23.2815 21.4774C23.0209 21.4774 22.5957 21.4882 22.22 21.4981C21.9154 21.5062 21.6277 21.5143 21.4642 21.5152C21.4199 21.4106 21.4002 21.2973 21.4066 21.184C21.3975 21.0772 21.4183 20.9699 21.4669 20.8744L21.6978 20.8321C21.8992 20.7961 22.0735 20.7655 22.2371 20.7241C22.5211 20.6341 22.6281 20.4793 22.6488 20.1166C22.7045 19.2706 22.7476 16.8325 22.6281 16.2223C22.425 15.2431 21.8686 14.7463 20.9734 14.7463C20.4494 14.7463 19.787 14.9992 19.246 15.4051C19.1939 15.4558 19.1529 15.5168 19.1255 15.5842C19.0982 15.6515 19.085 15.7239 19.0869 15.7966C19.0869 16.0873 19.0869 16.4329 19.0869 16.8037C19.0869 18.0277 19.0788 19.5514 19.1084 20.2102C19.1264 20.4136 19.1983 20.6548 19.5785 20.743C19.6621 20.7673 19.8059 20.7907 19.9731 20.8186C20.0692 20.8348 20.1744 20.8519 20.2832 20.8717C20.3177 21.0872 20.3002 21.3079 20.2319 21.5152C20.0648 21.5152 19.8589 21.5044 19.6234 21.4945C19.2639 21.4783 18.8145 21.4585 18.3067 21.4585C17.7063 21.4585 17.2884 21.4783 16.9531 21.4945C16.7276 21.5053 16.5325 21.5143 16.3375 21.5152" fill="#21313C"/>
<path d="M35.6098 14.4039C35.2854 14.3972 34.9663 14.4871 34.693 14.6622C34.0261 15.0681 33.6864 15.879 33.6864 17.0706C33.6864 19.3008 34.8018 20.8587 36.3989 20.8587C36.8271 20.8723 37.2448 20.7242 37.5691 20.4438C38.0599 20.0433 38.3205 19.2243 38.3205 18.0777C38.3205 15.8808 37.2303 14.4039 35.608 14.4039M35.9154 21.6858C33.0302 21.6858 32.0029 19.5663 32.0029 17.5836C32.0029 16.1985 32.5683 15.1158 33.6837 14.3643C34.4649 13.88 35.3616 13.6146 36.2803 13.5957C38.4814 13.5957 40.0192 15.1806 40.0192 17.4513C40.0192 18.9939 39.4053 20.2125 38.2432 20.9739C37.6851 21.3159 36.7153 21.6858 35.9154 21.6858Z" fill="#21313C"/>
<path d="M64.9825 14.4039C64.6574 14.3965 64.3376 14.4865 64.0639 14.6622C63.397 15.0681 63.0573 15.879 63.0573 17.0706C63.0573 19.3008 64.1727 20.8587 65.7698 20.8587C66.1993 20.8732 66.6184 20.7251 66.9436 20.4438C67.4344 20.0433 67.6941 19.2243 67.6941 18.0777C67.6941 15.8808 66.6048 14.4039 64.9825 14.4039ZM65.2899 21.6858C62.4048 21.6858 61.3774 19.5663 61.3774 17.5845C61.3774 16.1976 61.9428 15.1158 63.0591 14.3643C63.8398 13.8797 64.7364 13.6142 65.6548 13.5957C67.8559 13.5957 69.3937 15.1815 69.3937 17.4504C69.3937 18.9948 68.7799 20.2125 67.6177 20.973C67.0596 21.3159 66.0898 21.6858 65.2899 21.6858Z" fill="#21313C"/>
<path d="M55.2682 14.3287C54.3793 14.3287 53.8041 15.0316 53.8041 16.1197C53.8041 17.2078 54.2993 18.5011 55.6916 18.5011C55.9306 18.5011 56.3639 18.3949 56.5787 18.1582C56.9022 17.8603 57.1179 17.2447 57.1179 16.5949C57.1179 15.1756 56.4277 14.3287 55.2727 14.3287M55.1577 21.8383C54.9066 21.8355 54.659 21.8975 54.4387 22.0183C53.7349 22.4683 53.4086 22.9183 53.4086 23.4412C53.4086 23.9308 53.5983 24.3205 54.0063 24.6661C54.5007 25.0855 55.1676 25.2898 56.0439 25.2898C57.7687 25.2898 58.5416 24.361 58.5416 23.4412C58.5416 22.8004 58.2208 22.3711 57.5601 22.1281C57.0514 21.9418 56.2012 21.8392 55.1604 21.8392M55.2754 26.2492C54.24 26.2492 53.494 26.0305 52.8568 25.5391C52.2366 25.0603 51.958 24.3493 51.958 23.8579C51.9647 23.5412 52.0854 23.2376 52.2977 23.0029C52.4775 22.7977 52.8954 22.4134 53.8616 21.7483C53.8766 21.7419 53.8894 21.7312 53.8983 21.7176C53.9073 21.704 53.912 21.6881 53.912 21.6718C53.9123 21.6536 53.9064 21.6358 53.8953 21.6214C53.8842 21.607 53.8685 21.5969 53.8509 21.5926C53.0554 21.2875 52.8154 20.7826 52.7426 20.5126C52.7426 20.5027 52.7426 20.4874 52.7346 20.4703C52.7121 20.3641 52.6905 20.2633 52.8352 20.1598C52.9467 20.0806 53.1246 19.9744 53.3152 19.8619C53.5842 19.7128 53.8422 19.5446 54.0872 19.3588C54.1004 19.3446 54.1102 19.3276 54.1158 19.309C54.1214 19.2905 54.1226 19.2709 54.1195 19.2518C54.1164 19.2327 54.109 19.2146 54.0977 19.1988C54.0865 19.183 54.0719 19.17 54.0549 19.1608C52.8775 18.7648 52.2843 17.8891 52.2843 16.5508C52.2806 16.1334 52.3776 15.7214 52.5669 15.3496C52.7563 14.9778 53.0324 14.6572 53.3718 14.4151C53.8455 14.0398 55.0346 13.5889 55.8048 13.5889H55.8498C56.6416 13.6078 57.0883 13.7743 57.7066 14.0029C58.0584 14.1302 58.4311 14.1895 58.805 14.1775C59.4602 14.1775 59.7469 13.9696 59.9932 13.7275C60.0331 13.8365 60.0544 13.9515 60.0561 14.0677C60.0711 14.3444 59.9961 14.6185 59.8422 14.8489C59.7083 15.0352 59.3928 15.1702 59.1043 15.1702C59.0746 15.1702 59.0458 15.1702 59.0144 15.1657C58.8626 15.155 58.7121 15.13 58.565 15.091L58.4913 15.1171C58.4679 15.1513 58.4832 15.1891 58.5021 15.2377C58.5067 15.2472 58.5103 15.2571 58.5129 15.2674C58.5655 15.5076 58.6012 15.7512 58.6198 15.9964C58.6198 17.3959 58.0689 18.0052 57.473 18.457C56.8968 18.8898 56.2126 19.1552 55.4956 19.2238C55.4804 19.2238 55.4058 19.2301 55.2655 19.2427C55.1757 19.2508 55.0588 19.2616 55.0417 19.2616H55.0247C54.8952 19.2976 54.5573 19.4587 54.5573 19.7584C54.5573 20.0068 54.7101 20.3155 55.4408 20.3713L55.9136 20.4046C56.8771 20.4721 58.0805 20.5558 58.6468 20.7475C59.0224 20.8797 59.3468 21.1272 59.5738 21.4547C59.8009 21.7823 59.919 22.1731 59.9114 22.5718C59.9114 23.8273 59.0198 25.0081 57.5269 25.7299C56.8229 26.0666 56.052 26.2398 55.2718 26.2366" fill="#21313C"/>
<path d="M50.8587 20.8452C50.4362 20.7885 50.1279 20.7309 49.7639 20.5599C49.6925 20.4858 49.6454 20.3916 49.6291 20.2899C49.5905 19.7004 49.5905 17.9895 49.5905 16.8699C49.5905 15.9564 49.4377 15.1599 49.0512 14.5884C48.5901 13.9413 47.9376 13.5615 47.0927 13.5615C46.344 13.5615 45.3455 14.0745 44.5204 14.7783C44.5006 14.7972 44.3739 14.9178 44.3766 14.7306C44.3793 14.5434 44.4081 14.1636 44.426 13.9206C44.434 13.8561 44.4268 13.7905 44.4049 13.7293C44.3831 13.668 44.3472 13.6127 44.3002 13.5678C43.7609 13.8378 42.2483 14.1978 41.6883 14.2527C41.2803 14.3319 41.1769 14.7252 41.6128 14.8611H41.6191C41.968 14.9575 42.3011 15.1042 42.6078 15.2967C42.7803 15.4299 42.7615 15.6198 42.7615 15.7719C42.7803 17.0454 42.7803 19.0038 42.7228 20.0685C42.704 20.487 42.588 20.6391 42.2806 20.7156L42.3094 20.7057C42.0753 20.7645 41.8379 20.8089 41.5984 20.8389C41.5023 20.9334 41.5023 21.4851 41.5984 21.5994C41.7908 21.5994 42.7669 21.5427 43.5758 21.5427C44.6885 21.5427 45.2646 21.5994 45.5531 21.5994C45.6691 21.4662 45.7068 20.9532 45.6304 20.8389C45.3645 20.8269 45.1005 20.7886 44.8422 20.7246C44.5357 20.649 44.4584 20.496 44.4395 20.1549C44.4018 19.2603 44.4018 17.3595 44.4018 16.0662C44.4018 15.7062 44.497 15.5343 44.6121 15.4362C44.9959 15.0942 45.6304 14.8665 46.1868 14.8665C46.726 14.8665 47.0855 15.0375 47.3552 15.2652C47.6692 15.5396 47.8661 15.9243 47.9052 16.3398C47.9816 17.0598 47.9619 18.5079 47.9619 19.7598C47.9619 20.4447 47.9052 20.6166 47.6554 20.6922C47.5403 20.7489 47.2329 20.8065 46.868 20.8443C46.753 20.9586 46.7907 21.4905 46.868 21.6048C47.3669 21.6048 47.9466 21.5481 48.7878 21.5481C49.8439 21.5481 50.5162 21.6048 50.7849 21.6048C50.9 21.4716 50.9386 20.9748 50.8622 20.8443" fill="#21313C"/>
</g>
<defs>
<clipPath id="clip0_79_1601">
<rect width="100" height="27" fill="white" transform="translate(0 0.5)"/>
</clipPath>
</defs>
</svg>
