<svg width="100" height="100" viewBox="0 0 100 100" fill="none" xmlns="http://www.w3.org/2000/svg">
<path d="M30.6105 71.3221H27.9032C27.8075 66.7525 27.5438 62.4564 27.1128 58.4308H27.0887L22.9668 71.3221H20.9056L16.8083 58.4308H16.7848C16.4809 62.2958 16.2894 66.5929 16.2099 71.3221H13.7422C13.9012 65.5712 14.3009 60.1796 14.9397 55.147H18.2951L22.2004 67.0323H22.2245L26.1538 55.147H29.3644C30.0675 61.0418 30.4829 66.4339 30.6105 71.3221ZM42.3515 59.3881C41.2492 65.3698 39.7949 69.7161 37.99 72.4291C36.5838 74.5175 35.0431 75.5628 33.3654 75.5628C32.9181 75.5628 32.3662 75.4278 31.7123 75.1599V73.7176C32.0319 73.7637 32.407 73.7898 32.8381 73.7898C33.6218 73.7898 34.2516 73.5743 34.7319 73.1422C35.3063 72.6159 35.5935 72.0242 35.5935 71.3698C35.5935 70.9209 35.3696 70.0033 34.9228 68.6138L31.9519 59.3876H34.6116L36.7439 66.2879C37.2231 67.8547 37.4229 68.9486 37.3429 69.5717C38.509 66.4574 39.3235 63.0617 39.7876 59.3871H42.3515V59.3881Z" fill="#5D87A1"/>
<path d="M78.3884 71.3221H70.6981V55.1469H73.2851V69.331H78.3884V71.3221ZM68.6851 71.7129L65.7115 70.2454C65.9752 70.0288 66.2273 69.7945 66.4544 69.523C67.7183 68.0383 68.3487 65.8426 68.3487 62.9345C68.3487 57.5832 66.2488 54.9062 62.0474 54.9062C59.9872 54.9062 58.3801 55.5853 57.2308 56.9439C55.9679 58.4296 55.3375 60.6174 55.3375 63.5099C55.3375 66.3532 55.8962 68.439 57.0142 69.762C58.0369 70.9606 59.5786 71.5606 61.6404 71.5606C62.4094 71.5606 63.1151 71.4665 63.7581 71.2766L67.6293 73.5303L68.6851 71.7129ZM59.0524 68.0854C58.3974 67.0317 58.0699 65.3399 58.0699 63.0072C58.0699 58.9345 59.3071 56.8958 61.7842 56.8958C63.079 56.8958 64.028 57.3833 64.6349 58.3564C65.2888 59.4116 65.6178 61.0883 65.6178 63.3885C65.6178 67.4947 64.3796 69.5481 61.904 69.5481C60.6087 69.5486 59.6597 69.0626 59.0524 68.0854ZM54.2101 66.8387C54.2101 68.2104 53.7068 69.3357 52.7014 70.2172C51.6948 71.095 50.3451 71.535 48.6538 71.535C47.0718 71.535 45.5379 71.0296 44.0532 70.0241L44.7485 68.6352C46.026 69.275 47.1827 69.5931 48.2211 69.5931C49.1958 69.5931 49.9575 69.377 50.5099 68.9485C51.0618 68.5185 51.3909 67.9153 51.3909 67.1526C51.3909 66.1916 50.7207 65.3702 49.4913 64.6823C48.3577 64.0597 46.0904 62.7582 46.0904 62.7582C44.8615 61.8625 44.2463 60.901 44.2463 59.3169C44.2463 58.0059 44.7051 56.9476 45.6232 56.1424C46.5424 55.3342 47.7283 54.9314 49.1822 54.9314C50.6836 54.9314 52.0485 55.3337 53.2779 56.1299L52.6543 57.5194C51.6028 57.0726 50.5648 56.8492 49.541 56.8492C48.7118 56.8492 48.0715 57.0485 47.6263 57.4487C47.1775 57.8474 46.9007 58.3574 46.9007 58.9831C46.9007 59.9394 47.585 60.7712 48.8479 61.4728C49.9967 62.0964 52.3205 63.4205 52.3205 63.4205C53.5808 64.3145 54.2101 65.2672 54.2101 66.8387Z" fill="#F8981D"/>
<path d="M81.636 49.7294C80.0718 49.6896 78.8607 49.8471 77.8442 50.2771C77.5508 50.3943 77.0841 50.3943 77.0433 50.7652C77.2018 50.9221 77.2201 51.1753 77.3577 51.3919C77.5921 51.7827 78.0007 52.3085 78.3737 52.5826C78.7833 52.8965 79.1945 53.2072 79.6256 53.4808C80.3857 53.9512 81.2473 54.2248 81.9881 54.6935C82.4197 54.9661 82.8487 55.3187 83.2808 55.6121C83.4932 55.7686 83.6292 56.0223 83.9049 56.1201V56.0605C83.7668 55.8847 83.7276 55.6305 83.5921 55.4348L83.0051 54.8688C82.438 54.1071 81.7333 53.4421 80.9732 52.896C80.3475 52.4649 78.979 51.879 78.7252 51.1581L78.6855 51.1183C79.1155 51.078 79.6256 50.9221 80.0341 50.8023C80.6991 50.6271 81.3054 50.6668 81.9876 50.4916C82.3015 50.4131 82.6127 50.3148 82.9277 50.218V50.0417C82.574 49.6896 82.3219 49.2219 81.9499 48.8892C80.9549 48.0297 79.8584 47.189 78.7252 46.4853C78.1184 46.0935 77.3378 45.8413 76.6918 45.5081C76.459 45.3904 76.0666 45.3323 75.9295 45.1367C75.579 44.7066 75.3818 44.1406 75.1276 43.6316C74.5626 42.5575 74.0138 41.3658 73.5262 40.2301C73.1736 39.4684 72.9591 38.7077 72.5291 38.003C70.515 34.681 68.3277 32.669 64.9659 30.6941C64.2435 30.283 63.384 30.1077 62.4658 29.8922L60.9995 29.8147C60.6866 29.6777 60.3732 29.3057 60.1002 29.1299C58.9848 28.4268 56.1133 26.9029 55.293 28.9149C54.7646 30.1867 56.0745 31.437 56.5245 32.0821C56.8567 32.5299 57.2872 33.0394 57.5195 33.5479C57.6571 33.8801 57.6958 34.2327 57.8334 34.5837C58.1462 35.4438 58.4386 36.4006 58.8498 37.2031C59.0643 37.6122 59.2982 38.0423 59.5723 38.4127C59.7293 38.6292 60.0023 38.725 60.062 39.0781C59.7894 39.4673 59.768 40.0548 59.6115 40.5434C58.9084 42.7516 59.1831 45.4872 60.1797 47.11C60.4915 47.5986 61.2354 48.6742 62.2304 48.2619C63.1114 47.9104 62.9163 46.7966 63.1695 45.8199C63.2275 45.5839 63.1893 45.4291 63.3065 45.2742V45.3124C63.5791 45.8591 63.8543 46.3859 64.1069 46.9342C64.7133 47.891 65.769 48.8881 66.6484 49.551C67.1166 49.9046 67.4875 50.5094 68.074 50.7254V50.6668H68.0353C67.9165 50.4916 67.7428 50.4131 67.5869 50.2771C67.2343 49.925 66.844 49.495 66.5704 49.1047C65.7512 48.0098 65.0261 46.7976 64.3826 45.5468C64.0677 44.94 63.7962 44.2766 63.5425 43.6708C63.4242 43.437 63.4242 43.0844 63.2281 42.9666C62.934 43.3961 62.5056 43.7681 62.2911 44.2944C61.9191 45.1361 61.8804 46.1714 61.7423 47.2481L61.6654 47.2857C61.0429 47.1293 60.8263 46.4853 60.5898 45.9386C60.0044 44.5502 59.9061 42.3216 60.4141 40.7197C60.5501 40.3101 61.1386 39.02 60.9037 38.6298C60.786 38.2557 60.3947 38.0428 60.1802 37.7483C59.928 37.3779 59.6518 36.9091 59.4761 36.4979C59.0073 35.404 58.7714 34.1919 58.2665 33.0985C58.0306 32.589 57.621 32.0617 57.2893 31.5924C56.9168 31.0651 56.5072 30.6936 56.2127 30.0685C56.1154 29.8535 55.9788 29.5019 56.1352 29.268C56.1734 29.1111 56.2529 29.0525 56.4088 29.0133C56.662 28.7993 57.3856 29.0713 57.6393 29.1891C58.3638 29.482 58.9696 29.7556 59.5744 30.1658C59.848 30.3619 60.1415 30.7334 60.4925 30.8312H60.9037C61.5278 30.9672 62.2315 30.8689 62.819 31.0457C63.8543 31.3784 64.7923 31.8665 65.6335 32.3933C68.1932 34.0167 70.3041 36.3232 71.7292 39.0781C71.963 39.527 72.0624 39.9381 72.2759 40.4064C72.6876 41.3648 73.1966 42.342 73.6052 43.28C74.0159 44.1981 74.4072 45.1356 74.9936 45.8984C75.2861 46.3085 76.4611 46.5235 76.9879 46.7385C77.3776 46.9138 77.9845 47.0697 78.336 47.2847C79.0009 47.6943 79.6632 48.1646 80.2884 48.6151C80.5997 48.8494 81.5779 49.338 81.636 49.7294ZM61.701 32.7459C61.4312 32.7431 61.1622 32.7762 60.9011 32.8443V32.8835H60.9388C61.0962 33.1958 61.3698 33.4124 61.565 33.685C61.7224 33.9983 61.859 34.3091 62.0133 34.6219L62.051 34.5832C62.3267 34.3881 62.4637 34.0752 62.4637 33.606C62.345 33.4679 62.3267 33.3329 62.2278 33.1958C62.1127 33.0002 61.859 32.9029 61.701 32.7459Z" fill="#5D87A1"/>
<path d="M83.4975 71.3196H83.9025V69.3379H83.2951L82.7997 70.6903L82.2613 69.3379H81.6765V71.3196H82.0589V69.8119H82.0803L82.6443 71.3196H82.9357L83.4975 69.8119V71.3196ZM80.2357 71.3196H80.6642V69.6738H81.225V69.3374H79.6514V69.6738H80.2347L80.2357 71.3196Z" fill="#F8981D"/>
</svg>
