<svg width="100" height="62" viewBox="0 0 100 62" fill="none" xmlns="http://www.w3.org/2000/svg">
<g clip-path="url(#clip0_79_1575)">
<mask id="mask0_79_1575" style="mask-type:luminance" maskUnits="userSpaceOnUse" x="0" y="0" width="130" height="39">
<path d="M129.7 0.5H0V38.929H129.7V0.5Z" fill="white"/>
</mask>
<g mask="url(#mask0_79_1575)">
<path fill-rule="evenodd" clip-rule="evenodd" d="M21.2154 20.8114C21.2154 20.4077 20.992 20.0271 20.634 19.8248L11.1775 14.3328C11.0211 14.2433 10.8423 14.1983 10.6636 14.176H10.5742C10.3954 14.176 10.2167 14.2433 10.0598 14.3328L0.581489 19.8035C0.403678 19.905 0.256133 20.0518 0.153961 20.2288C0.0517903 20.4058 -0.00133519 20.6067 2.54961e-05 20.8109L0.0223708 35.5178C0.0223708 35.7192 0.134097 35.921 0.312859 36.0106C0.491622 36.1229 0.71556 36.1229 0.871491 36.0106L6.50542 32.7824C6.68075 32.6835 6.82681 32.5402 6.92889 32.3671C7.03097 32.194 7.08546 31.9971 7.08688 31.7963V24.9139C7.08688 24.5106 7.31033 24.1296 7.66786 23.9278L10.0598 22.5378C10.2344 22.4309 10.4363 22.3763 10.6412 22.3805C10.8423 22.3805 11.0435 22.4255 11.1999 22.5378L13.5923 23.9273C13.7676 24.0263 13.9136 24.1697 14.0156 24.3429C14.1176 24.5161 14.172 24.7131 14.1733 24.9139V31.7968C14.1733 32.2 14.3967 32.581 14.7547 32.7829L20.3439 36.0111C20.5227 36.1234 20.7462 36.1234 20.9254 36.0111C21.1042 35.9215 21.2159 35.7196 21.2159 35.5182L21.2154 20.8114ZM66.776 0.567661C66.5967 0.478097 66.3733 0.478097 66.2169 0.567661C66.0381 0.679494 65.9264 0.859105 65.9264 1.06099V15.6332C65.9258 15.705 65.907 15.7755 65.8718 15.8381C65.8365 15.9008 65.786 15.9535 65.7248 15.9915C65.6629 16.0244 65.5938 16.0416 65.5237 16.0416C65.4535 16.0416 65.3845 16.0244 65.3226 15.9915L62.953 14.6238C62.7795 14.5247 62.5829 14.4725 62.3829 14.4725C62.1829 14.4725 61.9864 14.5247 61.8129 14.6238L52.3341 20.1172C52.1589 20.2162 52.0129 20.3595 51.9109 20.5326C51.8089 20.7057 51.7545 20.9026 51.7532 21.1034V32.0654C51.7532 32.4692 51.9766 32.8502 52.3341 33.0521L61.8129 38.5445C61.9864 38.6436 62.1829 38.6958 62.3829 38.6958C62.5829 38.6958 62.7795 38.6436 62.953 38.5445L72.4318 33.0521C72.6071 32.953 72.7531 32.8097 72.8551 32.6365C72.9571 32.4632 73.0115 32.2663 73.0127 32.0654V4.73745C73.0127 4.31141 72.7893 3.93041 72.4318 3.72853L66.776 0.567661ZM65.904 28.4563C65.904 28.5686 65.8593 28.6582 65.77 28.7032L62.528 30.5864C62.4827 30.6085 62.4331 30.62 62.3827 30.62C62.3324 30.62 62.2827 30.6085 62.2375 30.5864L58.9959 28.7032C58.9066 28.6582 58.8619 28.5458 58.8619 28.4563V24.6898C58.8619 24.5779 58.9066 24.4884 58.9959 24.4434L62.2375 22.5601C62.2827 22.538 62.3324 22.5266 62.3827 22.5266C62.4331 22.5266 62.4827 22.538 62.528 22.5601L65.77 24.4434C65.8593 24.4884 65.904 24.6002 65.904 24.6903V28.4563ZM98.3183 24.6002C98.6763 24.3983 98.8774 24.0173 98.8774 23.6136V20.946C98.8774 20.5423 98.654 20.1617 98.3183 19.9599L88.9066 14.4892C88.733 14.3901 88.5365 14.338 88.3365 14.338C88.1365 14.338 87.94 14.3901 87.7665 14.4892L78.2882 19.9821C78.1128 20.0811 77.9668 20.2243 77.8647 20.3975C77.7626 20.5706 77.7081 20.7675 77.7067 20.9683V31.9313C77.7067 32.3346 77.9302 32.7156 78.2882 32.9175L87.6994 38.2981C88.0574 38.4995 88.482 38.4995 88.8172 38.2981L94.5181 35.1145C94.6969 35.0249 94.8086 34.823 94.8086 34.6212C94.8086 34.4193 94.6969 34.2179 94.5181 34.1283L84.9947 28.6354C84.8159 28.5236 84.7042 28.344 84.7042 28.1426V24.7125C84.7042 24.5106 84.8159 24.3088 84.9947 24.2187L87.9681 22.5156C88.055 22.4608 88.1557 22.4318 88.2585 22.4318C88.3614 22.4318 88.4621 22.4608 88.549 22.5156L91.5224 24.2192C91.7012 24.331 91.8129 24.5106 91.8129 24.7125V27.4028C91.8129 27.6042 91.9246 27.8061 92.1039 27.8957C92.2826 28.008 92.5061 28.008 92.6849 27.8957L98.3183 24.6002Z" fill="#333333"/>
<path fill-rule="evenodd" clip-rule="evenodd" d="M88.1917 24.0851C88.225 24.0634 88.2639 24.0518 88.3037 24.0518C88.3435 24.0518 88.3824 24.0634 88.4157 24.0851L90.2261 25.1386C90.2931 25.1831 90.3378 25.2504 90.3378 25.3405V27.4474C90.3375 27.4876 90.3271 27.5272 90.3076 27.5624C90.2881 27.5977 90.2601 27.6275 90.2261 27.6493L88.4157 28.7032C88.3824 28.725 88.3435 28.7366 88.3037 28.7366C88.2639 28.7366 88.225 28.725 88.1917 28.7032L86.3813 27.6493C86.347 27.6279 86.3187 27.5981 86.2991 27.5628C86.2796 27.5274 86.2694 27.4877 86.2695 27.4474V25.3409C86.2695 25.2514 86.3142 25.1836 86.3813 25.1391L88.1917 24.0851Z" fill="#5FA04E"/>
<path d="M37.0646 14.5616C36.891 14.4624 36.6944 14.4102 36.4943 14.4102C36.2942 14.4102 36.0976 14.4624 35.924 14.5616L26.5127 20.009C26.1547 20.2108 25.9536 20.5918 25.9536 20.9956V31.9132C25.9536 32.3169 26.1771 32.6979 26.5122 32.8998L35.924 38.3477C36.0976 38.4469 36.2942 38.4991 36.4943 38.4991C36.6944 38.4991 36.891 38.4469 37.0646 38.3477L46.4758 32.8998C46.8338 32.6979 47.0344 32.3169 47.0344 31.9132V20.9956C47.0344 20.5918 46.811 20.2113 46.4758 20.009L37.0646 14.5616Z" fill="url(#paint0_linear_79_1575)"/>
<mask id="mask1_79_1575" style="mask-type:luminance" maskUnits="userSpaceOnUse" x="25" y="14" width="23" height="25">
<path d="M37.0646 14.5616C36.891 14.4624 36.6944 14.4102 36.4943 14.4102C36.2942 14.4102 36.0976 14.4624 35.924 14.5616L26.5127 20.009C26.1547 20.2108 25.9536 20.5918 25.9536 20.9956V31.9132C25.9536 32.3169 26.1771 32.6979 26.5122 32.8998L35.924 38.3477C36.0976 38.4469 36.2942 38.4991 36.4943 38.4991C36.6944 38.4991 36.891 38.4469 37.0646 38.3477L46.4758 32.8998C46.8338 32.6979 47.0344 32.3169 47.0344 31.9132V20.9956C47.0344 20.5918 46.811 20.2113 46.4758 20.009L37.0646 14.5616Z" fill="white"/>
</mask>
<g mask="url(#mask1_79_1575)">
<path d="M36.4942 13.853L46.9411 20.1443L36.4947 39.0857L26.0278 32.7834L36.4942 13.853Z" fill="url(#paint1_linear_79_1575)"/>
</g>
<mask id="mask2_79_1575" style="mask-type:luminance" maskUnits="userSpaceOnUse" x="25" y="14" width="23" height="25">
<path d="M37.0646 14.5616C36.891 14.4624 36.6944 14.4102 36.4943 14.4102C36.2942 14.4102 36.0976 14.4624 35.924 14.5616L26.5127 20.009C26.1547 20.2108 25.9536 20.5918 25.9536 20.9956V31.9132C25.9536 32.3169 26.1771 32.6979 26.5122 32.8998L35.924 38.3477C36.0976 38.4469 36.2942 38.4991 36.4943 38.4991C36.6944 38.4991 36.891 38.4469 37.0646 38.3477L46.4758 32.8998C46.8338 32.6979 47.0344 32.3169 47.0344 31.9132V20.9956C47.0344 20.5918 46.811 20.2113 46.4758 20.009L37.0646 14.5616Z" fill="white"/>
</mask>
<g mask="url(#mask2_79_1575)">
<path d="M36.4942 13.853L26.0278 20.1443L36.4942 39.0857L46.9411 32.7834L36.4942 13.853Z" fill="url(#paint2_linear_79_1575)"/>
</g>
</g>
<path d="M49.1736 61.2127C48.8447 61.2109 48.5216 61.126 48.2346 60.9658L45.2612 59.1949C44.8138 58.948 45.0378 58.8584 45.1719 58.8139C45.7752 58.612 45.8869 58.567 46.5131 58.2087C46.5801 58.1637 46.6695 58.186 46.7365 58.231L49.0167 59.5986C49.1061 59.6432 49.2178 59.6432 49.2848 59.5986L58.205 54.4194C58.2939 54.3749 58.3395 54.2853 58.3395 54.173V43.8384C58.3395 43.726 58.2939 43.6365 58.205 43.5915L49.2848 38.4355C49.1955 38.3905 49.0837 38.3905 49.0167 38.4355L40.097 43.5915C40.0077 43.6365 39.963 43.7483 39.963 43.8384V54.173C39.963 54.2631 40.0077 54.3749 40.097 54.4199L42.5337 55.8321C43.8525 56.5051 44.6798 55.7198 44.6798 54.9355V44.735C44.6798 44.6004 44.7915 44.4658 44.9484 44.4658H46.0885C46.2226 44.4658 46.3566 44.5781 46.3566 44.735V54.9355C46.3566 56.7065 45.3953 57.7376 43.7184 57.7376C43.2045 57.7376 42.8023 57.7376 41.6617 57.1775L39.3145 55.8321C39.0282 55.6649 38.7908 55.4258 38.6261 55.1387C38.4613 54.8516 38.3749 54.5265 38.3755 54.1958V43.8597C38.3755 43.1867 38.7335 42.5598 39.3145 42.2233L48.2346 37.0451C48.7932 36.7304 49.5535 36.7304 50.1121 37.0451L59.0322 42.2233C59.3185 42.3906 59.5557 42.6297 59.7204 42.9168C59.885 43.2039 59.9714 43.529 59.9707 43.8597V54.1953C59.9707 54.8682 59.6132 55.4957 59.0322 55.8321L50.1121 61.0108C49.844 61.1231 49.5088 61.2127 49.1736 61.2127Z" fill="#5FA04E"/>
<path d="M51.9458 54.1059C48.0329 54.1059 47.228 52.3123 47.228 50.7877C47.228 50.6536 47.3398 50.5191 47.4962 50.5191H48.6586C48.7932 50.5191 48.9049 50.6086 48.9049 50.7432C49.0837 51.9312 49.5976 52.5141 51.9677 52.5141C53.8456 52.5141 54.6505 52.0881 54.6505 51.0797C54.6505 50.4968 54.4261 50.0707 51.4979 49.7793C49.0613 49.5324 47.5409 48.9945 47.5409 47.044C47.5409 45.2285 49.0613 44.1518 51.6096 44.1518C54.4718 44.1518 55.88 45.1385 56.0588 47.2909C56.0566 47.363 56.0335 47.433 55.9922 47.4923C55.9466 47.5373 55.88 47.5823 55.812 47.5823H54.6272C54.5698 47.5801 54.5147 47.5592 54.4704 47.5227C54.426 47.4862 54.395 47.4362 54.3819 47.3805C54.1133 46.1474 53.4201 45.7441 51.5873 45.7441C49.5306 45.7441 49.2848 46.4606 49.2848 46.9994C49.2848 47.6491 49.5753 47.8515 52.3475 48.2098C55.097 48.568 56.394 49.0841 56.394 51.0119C56.394 52.9852 54.7618 54.1059 51.9458 54.1059ZM64.8235 43.2552C64.8235 44.1968 64.0404 44.9816 63.1009 44.9816C62.6431 44.9798 62.2047 44.797 61.882 44.4733C61.5593 44.1496 61.3787 43.7115 61.3799 43.2552C61.3792 43.0293 61.4231 42.8054 61.5092 42.5964C61.5954 42.3873 61.7219 42.1973 61.8818 42.037C62.0416 41.8767 62.2315 41.7494 62.4407 41.6623C62.6499 41.5752 62.8742 41.53 63.1009 41.5293C64.0181 41.5293 64.8235 42.2913 64.8235 43.2552ZM61.6485 43.2552C61.6485 44.0623 62.297 44.7124 63.0786 44.7124C63.884 44.7124 64.5325 44.0395 64.5325 43.2552C64.5325 42.4482 63.884 41.8207 63.0786 41.8207C62.699 41.8248 62.3362 41.9775 62.0686 42.2459C61.8011 42.5143 61.6501 42.8769 61.6485 43.2552ZM62.4534 42.2913H63.1243C63.3477 42.2913 63.7951 42.2913 63.7951 42.8069C63.7951 43.1652 63.5707 43.2329 63.4361 43.278C63.7052 43.3002 63.7271 43.4794 63.7495 43.7263C63.7718 43.8831 63.7951 44.1523 63.8393 44.2419H63.4361C63.4361 44.1518 63.3696 43.659 63.3696 43.6367C63.3477 43.5244 63.303 43.4794 63.169 43.4794H62.8333V44.2636H62.4534V42.2913ZM62.8109 43.1434H63.1009C63.3477 43.1434 63.3919 42.9642 63.3919 42.8742C63.3919 42.605 63.2132 42.605 63.1009 42.605H62.7891V43.1434H62.8109Z" fill="#5FA04E"/>
</g>
<defs>
<linearGradient id="paint0_linear_79_1575" x1="40.6869" y1="18.5038" x2="33.2343" y2="36.0184" gradientUnits="userSpaceOnUse">
<stop stop-color="#3F8B3D"/>
<stop offset="0.64" stop-color="#3F873F"/>
<stop offset="0.93" stop-color="#3DA92E"/>
<stop offset="1" stop-color="#3DAE2B"/>
</linearGradient>
<linearGradient id="paint1_linear_79_1575" x1="35.0859" y1="27.3345" x2="58.9495" y2="14.4863" gradientUnits="userSpaceOnUse">
<stop offset="0.14" stop-color="#3F873F"/>
<stop offset="0.4" stop-color="#52A044"/>
<stop offset="0.71" stop-color="#64B749"/>
<stop offset="0.91" stop-color="#6ABF4B"/>
</linearGradient>
<linearGradient id="paint2_linear_79_1575" x1="26.075" y1="26.221" x2="47.3273" y2="26.221" gradientUnits="userSpaceOnUse">
<stop offset="0.09" stop-color="#6ABF4B"/>
<stop offset="0.29" stop-color="#64B749"/>
<stop offset="0.6" stop-color="#52A044"/>
<stop offset="0.86" stop-color="#3F873F"/>
</linearGradient>
<clipPath id="clip0_79_1575">
<rect width="100" height="61" fill="white" transform="translate(0 0.5)"/>
</clipPath>
</defs>
</svg>
