<svg width="100" height="100" viewBox="0 0 100 100" fill="none" xmlns="http://www.w3.org/2000/svg">
<g clip-path="url(#clip0_79_1618)">
<path d="M34.8957 22.9513C24.8262 22.9513 16.6665 21.5444 16.6665 19.8086V53.7534C16.6665 55.4895 24.8262 56.8964 34.8957 56.8964C44.9651 56.8964 53.1248 55.4892 53.1248 53.7534V19.8096C53.1248 21.5454 44.9651 22.9513 34.8957 22.9513Z" fill="#B9CED9"/>
<path d="M16.6665 19.8096V53.7533C16.6665 55.4894 24.8262 56.8964 34.8957 56.8964V22.9512C24.828 22.9512 16.6665 21.5453 16.6665 19.8096Z" fill="#A1BDCC"/>
<path d="M50.6108 21.4033V55.3471C52.2081 54.8801 53.1251 54.3353 53.1251 53.7537V19.8096C53.1251 20.3912 52.2084 20.9373 50.6108 21.4033Z" fill="#A1BDCC"/>
<path d="M34.8957 22.9526C44.9634 22.9526 53.1248 21.5454 53.1248 19.8096C53.1248 18.0737 44.9634 16.6665 34.8957 16.6665C24.828 16.6665 16.6665 18.0737 16.6665 19.8096C16.6665 21.5454 24.828 22.9526 34.8957 22.9526Z" fill="#8AADBF"/>
<path d="M16.6665 41.1807C16.6665 42.9168 24.8262 44.3237 34.8957 44.3237C44.9651 44.3237 53.1248 42.9168 53.1248 41.1807V43.6952C53.1248 45.4314 44.9651 46.8383 34.8957 46.8383C24.8262 46.8383 16.6665 45.4321 16.6665 43.6963V41.1807Z" fill="#789EB2"/>
<path d="M53.1248 29.8672C53.1248 31.6033 44.9651 33.0102 34.8957 33.0102C24.8262 33.0102 16.6665 31.603 16.6665 29.8672V32.3818C16.6665 34.1179 24.8262 35.5245 34.8957 35.5245C44.9651 35.5245 53.1248 34.1175 53.1248 32.3818V29.8672Z" fill="#789EB2"/>
<path d="M79.1668 39.5835H43.7502C41.449 39.5835 39.5835 41.449 39.5835 43.7502V79.1668C39.5835 81.468 41.449 83.3335 43.7502 83.3335H79.1668C81.468 83.3335 83.3335 81.468 83.3335 79.1668V43.7502C83.3335 41.449 81.468 39.5835 79.1668 39.5835Z" fill="#F80000"/>
<path d="M49.0586 53.1196H53.0302L55.408 58.5922L57.7402 53.1196H61.3649L57.2093 61.363L61.4347 69.7919H57.4864L54.9232 64.0425L52.3611 69.7919H48.7583L53.076 61.0641L49.0586 53.1196Z" fill="white"/>
<path d="M64.1362 69.7919V53.1196H73.2335V55.6828H67.6227V59.7919H72.7963V62.355H67.6227V67.2269H73.4182V69.7919H64.1362Z" fill="white"/>
</g>
<defs>
<clipPath id="clip0_79_1618">
<rect width="100" height="100" fill="white"/>
</clipPath>
</defs>
</svg>
