<svg width="100" height="54" viewBox="0 0 100 54" fill="none" xmlns="http://www.w3.org/2000/svg">
<g clip-path="url(#clip0_79_1630)">
<mask id="mask0_79_1630" style="mask-type:luminance" maskUnits="userSpaceOnUse" x="1" y="1" width="98" height="52">
<path d="M1.40625 27C1.40625 41.1341 23.1629 52.5923 50.0001 52.5923C76.8372 52.5923 98.5941 41.1341 98.5941 27C98.5941 12.8661 76.8372 1.40774 50.0001 1.40774C23.1629 1.40774 1.40625 12.8661 1.40625 27Z" fill="white"/>
</mask>
<g mask="url(#mask0_79_1630)">
<path d="M1.40625 27C1.40625 41.1341 23.1629 52.5923 50.0001 52.5923C76.8372 52.5923 98.5941 41.1341 98.5941 27C98.5941 12.8661 76.8372 1.40774 50.0001 1.40774C23.1629 1.40774 1.40625 12.8661 1.40625 27Z" fill="url(#paint0_radial_79_1630)"/>
</g>
<mask id="mask1_79_1630" style="mask-type:luminance" maskUnits="userSpaceOnUse" x="-1" y="-2" width="102" height="58">
<path d="M-0.618652 -1.50653H100.619V55.5063H-0.618652V-1.50653Z" fill="white"/>
</mask>
<g mask="url(#mask1_79_1630)">
<path d="M49.9998 50.6919C75.7888 50.6919 96.6955 40.0845 96.6955 26.9997C96.6955 13.9151 75.7888 3.3075 49.9998 3.3075C24.2109 3.3075 3.3042 13.9151 3.3042 26.9997C3.3042 40.0845 24.2109 50.6919 49.9998 50.6919Z" fill="#777BB3"/>
</g>
<mask id="mask2_79_1630" style="mask-type:luminance" maskUnits="userSpaceOnUse" x="-1" y="-2" width="102" height="58">
<path d="M-0.618652 -1.50653H100.619V55.5063H-0.618652V-1.50653Z" fill="white"/>
</mask>
<g mask="url(#mask2_79_1630)">
<path d="M27.8078 29.9372C29.9283 29.9372 31.5114 29.5457 32.513 28.7739C33.504 28.01 34.1884 26.6866 34.5471 24.8405C34.8816 23.115 34.7541 21.9102 34.1685 21.26C33.5697 20.5959 32.2751 20.2591 30.3206 20.2591H26.9318L25.0531 29.9372H27.8078ZM16.7239 41.8589C16.5666 41.8589 16.4172 41.7885 16.3172 41.6667C16.217 41.5451 16.1764 41.385 16.2065 41.2303L21.1854 15.5832C21.2335 15.3352 21.4506 15.1561 21.703 15.1561H32.4338C35.8062 15.1561 38.3164 16.0729 39.8942 17.8813C41.4804 19.6992 41.9703 22.2403 41.35 25.4339C41.0976 26.735 40.6635 27.9433 40.0598 29.0252C39.4553 30.1083 38.6565 31.1104 37.6851 32.0043C36.5223 33.0939 35.2062 33.8839 33.7769 34.3488C32.3703 34.8076 30.5639 35.0402 28.4078 35.0402H24.0627L22.8219 41.4316C22.7737 41.6798 22.5568 41.8589 22.3044 41.8589H16.7239Z" fill="black"/>
<path d="M27.3664 20.7869H30.3206C32.6795 20.7869 33.4988 21.3051 33.7772 21.614C34.2391 22.1267 34.3263 23.2079 34.0295 24.7404C33.6959 26.456 33.0775 27.6725 32.1914 28.3556C31.2841 29.0549 29.8091 29.4092 27.8078 29.4092H25.6927L27.3664 20.7869ZM32.4337 14.6281H21.7028C21.198 14.6281 20.764 14.9864 20.6677 15.4824L15.6888 41.1296C15.6287 41.4391 15.7099 41.7592 15.9101 42.0026C16.1105 42.2459 16.4089 42.3867 16.7239 42.3867H22.3042C22.8092 42.3867 23.2431 42.0285 23.3394 41.5324L24.4973 35.568H28.4078C30.6192 35.568 32.4808 35.3266 33.9405 34.8506C35.4417 34.3623 36.8228 33.5344 38.0452 32.3899C39.0562 31.4587 39.8889 30.4135 40.5199 29.2829C41.151 28.152 41.6045 26.8908 41.8676 25.5345C42.5205 22.1728 41.9901 19.4809 40.2912 17.534C38.6089 15.6058 35.9651 14.6281 32.4337 14.6281ZM24.4133 30.465H27.8078C30.0577 30.465 31.7335 30.0408 32.8346 29.1921C33.936 28.3432 34.6787 26.9265 35.0647 24.9413C35.4339 23.0352 35.2657 21.6902 34.5601 20.9066C33.8535 20.123 32.4406 19.7311 30.3206 19.7311H26.4971L24.4133 30.465ZM32.4337 15.6839C35.6619 15.6839 38.0169 16.5321 39.4971 18.2286C40.9772 19.925 41.4229 22.293 40.8324 25.3332C40.5893 26.5855 40.1782 27.7305 39.5994 28.7679C39.02 29.8059 38.2633 30.755 37.3283 31.6157C36.214 32.6597 34.9761 33.4037 33.614 33.8468C32.2518 34.2911 30.5169 34.5123 28.4078 34.5123H23.6279L22.3042 41.3309H16.7239L21.7028 15.6839H32.4337Z" fill="white"/>
<path d="M54.1452 35.04C53.9877 35.04 53.8385 34.9697 53.7385 34.8479C53.6381 34.7263 53.5975 34.5663 53.6276 34.4115L55.83 23.0636C56.0395 21.9844 55.9879 21.2098 55.6847 20.8825C55.4991 20.6825 54.9416 20.3469 53.2931 20.3469H49.303L46.534 34.6128C46.4858 34.8609 46.2687 35.04 46.0164 35.04H40.4799C40.3225 35.04 40.1732 34.9697 40.0731 34.8479C39.9729 34.7263 39.9323 34.5662 39.9623 34.4115L44.9412 8.76432C44.9894 8.51638 45.2065 8.33725 45.4588 8.33725H50.9953C51.1527 8.33725 51.302 8.40763 51.4021 8.52923C51.5023 8.65099 51.5429 8.81095 51.5129 8.9658L50.3114 15.1559H54.6038C57.8738 15.1559 60.0911 15.7331 61.3826 16.9205C62.699 18.1318 63.1098 20.0687 62.6036 22.6779L60.2871 34.6128C60.2389 34.8609 60.0221 35.04 59.7695 35.04H54.1452Z" fill="black"/>
<path d="M50.9952 7.80928H45.4588C44.9539 7.80928 44.5199 8.16755 44.4236 8.6636L39.4447 34.3108C39.3846 34.6203 39.4658 34.9404 39.6661 35.1837C39.8665 35.4271 40.1649 35.5679 40.4799 35.5679H46.0163C46.5211 35.5679 46.9552 35.2096 47.0515 34.7136L49.7377 20.8747H53.2931C54.9387 20.8747 55.2841 21.2267 55.298 21.2418C55.3978 21.3493 55.5291 21.8473 55.3124 22.9629L53.1099 34.3108C53.0498 34.6203 53.131 34.9404 53.3314 35.1837C53.5318 35.4271 53.8302 35.5679 54.1452 35.5679H59.7695C60.2742 35.5679 60.7084 35.2096 60.8047 34.7136L63.121 22.7787C63.6646 19.9771 63.1996 17.8756 61.7394 16.5319C60.3459 15.2507 58.0119 14.628 54.6037 14.628H50.9508L52.0304 9.06656C52.0904 8.75703 52.0093 8.43678 51.809 8.19359C51.6086 7.95023 51.3102 7.80928 50.9952 7.80928ZM50.9952 8.86508L49.6716 15.6837H54.6037C57.7071 15.6837 59.8477 16.2261 61.0258 17.3093C62.2039 18.3933 62.5568 20.1496 62.086 22.5774L59.7695 34.5121H54.1452L56.3476 23.1644C56.5982 21.8735 56.5061 20.993 56.071 20.5235C55.6356 20.054 54.7095 19.8189 53.2931 19.8189H48.8682L46.0163 34.5121H40.4799L45.4588 8.86508H50.9952Z" fill="white"/>
<path d="M71.3634 29.9372C73.484 29.9372 75.067 29.5457 76.0687 28.7739C77.0596 28.0102 77.744 26.6868 78.1029 24.8405C78.4374 23.115 78.31 21.9102 77.7242 21.26C77.1253 20.5959 75.8307 20.2591 73.8763 20.2591H70.4875L68.6088 29.9372H71.3634ZM60.2797 41.8589C60.1224 41.8589 59.973 41.7885 59.873 41.6667C59.7728 41.5451 59.7321 41.385 59.7621 41.2303L64.741 15.5832C64.7894 15.3352 65.0062 15.1561 65.2588 15.1561H75.9894C79.3621 15.1561 81.8721 16.0729 83.45 17.8813C85.0363 19.699 85.5259 22.2401 84.9058 25.4339C84.6531 26.735 84.2192 27.9433 83.6154 29.0252C83.011 30.1083 82.2122 31.1104 81.2407 32.0043C80.0779 33.0939 78.7618 33.8839 77.3326 34.3488C75.926 34.8076 74.1195 35.0402 71.9635 35.0402H67.6182L66.3779 41.4316C66.3295 41.6798 66.1126 41.8589 65.8601 41.8589H60.2797Z" fill="black"/>
<path d="M70.9224 20.7869H73.8766C76.2354 20.7869 77.0548 21.3051 77.3332 21.614C77.7953 22.1267 77.8825 23.2079 77.5854 24.7402C77.2518 26.456 76.6333 27.6725 75.7473 28.3556C74.8401 29.0549 73.3651 29.4092 71.3637 29.4092H69.2488L70.9224 20.7869ZM75.9897 14.6281H65.2589C64.7541 14.6281 64.3202 14.9864 64.2239 15.4824L59.245 41.1296C59.1849 41.4391 59.2661 41.7592 59.4663 42.0026C59.6666 42.2459 59.9651 42.3867 60.28 42.3867H65.8604C66.3652 42.3867 66.7993 42.0285 66.8956 41.5324L68.0533 35.568H71.9638C74.1752 35.568 76.0368 35.3266 77.4965 34.8506C78.9977 34.3623 80.3791 33.5342 81.6015 32.3896C82.6125 31.4585 83.4449 30.4135 84.0759 29.2829C84.707 28.152 85.1605 26.8908 85.4236 25.5345C86.0765 22.1727 85.5461 19.4807 83.8472 17.5339C82.1648 15.6058 79.5212 14.6281 75.9897 14.6281ZM67.9695 30.465H71.3637C73.6136 30.465 75.2895 30.0408 76.3906 29.1921C77.4921 28.3432 78.2347 26.9265 78.6207 24.9413C78.9901 23.0352 78.8219 21.6902 78.116 20.9066C77.4095 20.123 75.9966 19.7311 73.8766 19.7311H70.0531L67.9695 30.465ZM75.9897 15.6839C79.2179 15.6839 81.5729 16.5321 83.0531 18.2286C84.5334 19.925 84.9789 22.293 84.3884 25.3332C84.1453 26.5855 83.7342 27.7305 83.1554 28.7679C82.5759 29.8059 81.8193 30.755 80.8843 31.6157C79.7699 32.6597 78.5321 33.4037 77.1699 33.8468C75.8078 34.2911 74.0729 34.5123 71.9638 34.5123H67.1838L65.8604 41.3309H60.28L65.2589 15.6839H75.9897Z" fill="white"/>
</g>
</g>
<defs>
<radialGradient id="paint0_radial_79_1630" cx="0" cy="0" r="1" gradientUnits="userSpaceOnUse" gradientTransform="translate(30.5822 10.4052) scale(63.8107 63.8857)">
<stop stop-color="#AEB2D5"/>
<stop offset="0.3" stop-color="#AEB2D5"/>
<stop offset="0.75" stop-color="#484C89"/>
<stop offset="1" stop-color="#484C89"/>
</radialGradient>
<clipPath id="clip0_79_1630">
<rect width="100" height="54" fill="white"/>
</clipPath>
</defs>
</svg>
