<svg width="100" height="100" viewBox="0 0 100 100" fill="none" xmlns="http://www.w3.org/2000/svg">
<g clip-path="url(#clip0_79_1714)">
<path d="M49.83 0C26.22 0 25.9664 9.16455 25.9664 11.0509C25.9664 13.9127 25.9664 22.5 25.9664 22.5H50.2845V25.9373C50.2845 25.9373 24.9645 25.9373 16.3073 25.9373C9.08091 25.9373 0 30.3309 0 49.8009C0 67.6855 7.08364 74.6018 14.2327 74.6018C16.3555 74.6018 22.7273 74.6018 22.7273 74.6018C22.7273 74.6018 22.7273 65.7245 22.7273 62.67C22.7273 57.6782 25.2009 48.4373 36.7327 48.4373C51.1964 48.4373 54.8882 48.4373 60.8518 48.4373C64.3991 48.4373 74.4027 46.8955 74.4027 35.3409C74.4027 23.1118 74.4027 19.0773 74.4027 13.3236C74.4036 10.4573 73.9136 0 49.83 0ZM36.4209 7.69909C38.8409 7.69909 40.7964 9.65364 40.7964 12.0745C40.7964 14.4936 38.8409 16.45 36.4209 16.45C34.0009 16.45 32.0455 14.4945 32.0455 12.0745C32.0455 9.65364 34.0009 7.69909 36.4209 7.69909Z" fill="url(#paint0_linear_79_1714)"/>
<path d="M50.1698 99.9998C73.7689 99.9998 74.0626 90.6625 74.0626 88.9489C74.0626 86.087 74.0626 77.4998 74.0626 77.4998H49.7153V74.0625C49.7153 74.0625 75.1989 74.0625 83.6926 74.0625C90.9735 74.0625 99.9998 69.5589 99.9998 50.1989C99.9998 28.997 90.4198 25.3979 85.7671 25.3979C83.6435 25.3979 77.2726 25.3979 77.2726 25.3979C77.2726 25.3979 77.2726 34.6852 77.2726 37.3298C77.2726 42.3216 74.8807 51.5625 63.2671 51.5625C48.8035 51.5625 45.5616 51.5625 39.1471 51.5625C35.6089 51.5625 25.5962 53.2861 25.5962 64.6589C25.5962 77.8179 25.5962 81.2634 25.5962 86.6761C25.5962 91.4307 28.5016 99.9998 50.1698 99.9998ZM63.5798 92.3007C61.1598 92.3007 59.2044 90.3452 59.2044 87.9252C59.2044 85.5052 61.1589 83.5498 63.5798 83.5498C65.9989 83.5498 67.9553 85.5052 67.9553 87.9252C67.9553 90.3452 65.9989 92.3007 63.5798 92.3007Z" fill="url(#paint1_linear_79_1714)"/>
</g>
<defs>
<linearGradient id="paint0_linear_79_1714" x1="9.37136" y1="8.93291" x2="59.0782" y2="58.806" gradientUnits="userSpaceOnUse">
<stop stop-color="#387EB8"/>
<stop offset="1" stop-color="#366994"/>
</linearGradient>
<linearGradient id="paint1_linear_79_1714" x1="39.5789" y1="40.797" x2="92.8717" y2="91.8542" gradientUnits="userSpaceOnUse">
<stop stop-color="#FFE052"/>
<stop offset="1" stop-color="#FFC331"/>
</linearGradient>
<clipPath id="clip0_79_1714">
<rect width="100" height="100" fill="white"/>
</clipPath>
</defs>
</svg>
