<svg width="100" height="90" viewBox="0 0 100 90" fill="none" xmlns="http://www.w3.org/2000/svg">
<g clip-path="url(#clip0_79_1595)">
<path d="M50 53.9158C54.9225 53.9158 58.913 49.924 58.913 44.9999C58.913 40.0758 54.9225 36.084 50 36.084C45.0774 36.084 41.0869 40.0758 41.0869 44.9999C41.0869 49.924 45.0774 53.9158 50 53.9158Z" fill="#61DAFB"/>
<path d="M49.9999 63.2668C76.4135 63.2668 97.826 55.0885 97.826 45.0001C97.826 34.9117 76.4135 26.7334 49.9999 26.7334C23.5863 26.7334 2.17383 34.9117 2.17383 45.0001C2.17383 55.0885 23.5863 63.2668 49.9999 63.2668Z" stroke="#61DAFB"/>
<path d="M34.1857 54.1335C47.3925 77.0157 65.179 91.4762 73.9131 86.432C82.6471 81.3878 79.0212 58.749 65.8144 35.8669C52.6076 12.9847 34.821 -1.4758 26.087 3.5684C17.353 8.61261 20.9788 31.2514 34.1857 54.1335Z" stroke="#61DAFB"/>
<path d="M34.1857 35.8668C20.9789 58.7489 17.353 81.3877 26.0871 86.4319C34.8211 91.4761 52.6077 77.0156 65.8145 54.1335C79.0213 31.2513 82.6472 8.61252 73.9132 3.56832C65.1791 -1.47589 47.3925 12.9846 34.1857 35.8668Z" stroke="#61DAFB"/>
</g>
<defs>
<clipPath id="clip0_79_1595">
<rect width="100" height="89" fill="white" transform="translate(0 0.5)"/>
</clipPath>
</defs>
</svg>
