<svg width="101" height="54" viewBox="0 0 101 54" fill="none" xmlns="http://www.w3.org/2000/svg">
<g clip-path="url(#clip0_79_2003)">
<path d="M77.2028 45.8866C89.4158 33.6585 91.4456 15.8657 81.7362 6.14449C72.0282 -3.57566 54.2592 -1.5436 42.0469 10.6838C29.8347 22.9115 33.3674 46.2729 37.5142 50.4259C40.8653 53.7812 64.9912 58.1139 77.2028 45.8866Z" fill="#F89939"/>
<path d="M27.0908 28.2171C20.0058 21.1229 9.69495 19.9419 4.06066 25.5831C-1.5722 31.2236 -0.394497 41.5493 6.69192 48.6424C13.7783 55.7387 27.3162 53.686 29.7206 51.2763C31.6664 49.3313 34.1779 35.3119 27.0908 28.2171Z" fill="#3499CD"/>
<path d="M51.5366 42.8896C50.285 44.0432 49.187 44.8946 48.2433 45.4416C47.2996 45.9904 46.3996 46.2645 45.5432 46.2645C44.558 46.2645 43.7633 45.8821 43.1607 45.117C42.5571 44.3512 42.2563 43.3243 42.2563 42.0324C42.2563 40.0968 42.6754 37.773 43.5134 35.0636C44.35 32.352 45.3686 29.8535 46.5651 27.5676L50.0733 26.267C50.1833 26.2302 50.267 26.2114 50.3225 26.2114C50.5886 26.2114 50.8086 26.4078 50.9773 26.7989C51.1479 27.1917 51.2337 27.7196 51.2337 28.3832C51.2337 30.264 50.8014 32.0848 49.9349 33.8457C49.0687 35.6073 47.7158 37.4874 45.8746 39.488C45.8006 40.447 45.7639 41.1056 45.7639 41.4656C45.7639 42.2682 45.911 42.9033 46.2056 43.3738C46.5006 43.845 46.8914 44.0789 47.3797 44.0789C47.8777 44.0789 48.4067 43.9006 48.9685 43.541C49.5292 43.1806 50.3856 42.4347 51.5363 41.2998V42.8896H51.5366ZM46.2474 37.4834C47.4165 36.1818 48.3659 34.722 49.0929 33.107C49.8198 31.4912 50.183 30.1015 50.183 28.9371C50.183 28.5977 50.1328 28.3218 50.0322 28.1146C49.9309 27.907 49.8011 27.8026 49.6449 27.8026C49.3056 27.8026 48.8098 28.6518 48.1604 30.3506C47.5109 32.0491 46.8734 34.427 46.2474 37.4834Z" fill="#010101"/>
<path d="M61.8684 42.8898C60.6993 44.0434 59.65 44.8948 58.7196 45.4418C57.7893 45.9906 56.7638 46.2646 55.6398 46.2646C54.3874 46.2646 53.3771 45.8635 52.6072 45.0623C51.8388 44.2589 51.4551 43.2043 51.4551 41.8947C51.4551 39.9406 52.1312 38.1725 53.4863 36.5914C54.8385 35.0096 56.3401 34.2192 57.988 34.2192C58.8444 34.2192 59.5295 34.4413 60.0459 34.8836C60.5615 35.3266 60.8194 35.9068 60.8194 36.6261C60.8194 38.535 58.7939 40.0829 54.7426 41.2726C55.1104 43.0696 56.0725 43.9694 57.6288 43.9694C58.2368 43.9694 58.8163 43.8058 59.3683 43.4794C59.9219 43.1516 60.7545 42.4244 61.8687 41.3004L61.8684 42.8898ZM54.6312 40.332C56.9877 39.6677 58.1668 38.4422 58.1668 36.6535C58.1668 35.7686 57.8441 35.3263 57.2004 35.3263C56.5925 35.3263 56.013 35.7888 55.4609 36.7163C54.9071 37.6425 54.6312 38.847 54.6312 40.332Z" fill="#010101"/>
<path d="M76.6191 42.8895C75.1457 44.2908 74.0914 45.2046 73.4567 45.6292C72.8214 46.0531 72.2137 46.2647 71.6332 46.2647C70.1782 46.2647 69.4927 44.979 69.5753 42.4064C68.6547 43.7243 67.8048 44.697 67.0266 45.3252C66.2491 45.952 65.4461 46.2647 64.6164 46.2647C63.8072 46.2647 63.1192 45.8852 62.552 45.1245C61.9848 44.3637 61.7031 43.4307 61.7031 42.3233C61.7031 40.9412 62.0821 39.6226 62.8412 38.3679C63.6017 37.1139 64.5753 36.1008 65.7627 35.3263C66.9501 34.5518 68.0009 34.1641 68.9114 34.1641C70.0628 34.1641 70.8687 34.6945 71.3292 35.7542L74.152 34.1922H74.9265L73.7073 38.2437C73.0813 40.2819 72.7673 41.6788 72.7673 42.4345C72.7673 43.2271 73.0475 43.6235 73.6096 43.6235C73.9673 43.6235 74.3633 43.4325 74.7963 43.0494C75.2294 42.6663 75.8359 42.0832 76.6184 41.2997V42.8895H76.6191ZM66.5091 43.651C67.4297 43.651 68.2973 42.8653 69.1137 41.2936C69.9287 39.7212 70.3358 38.2704 70.3358 36.9432C70.3358 36.4276 70.2197 36.0235 69.9907 35.7336C69.7595 35.4422 69.4512 35.2978 69.0654 35.2978C68.1441 35.2978 67.2707 36.0813 66.4482 37.649C65.6242 39.2168 65.2114 40.6596 65.2114 41.9767C65.2114 42.4753 65.334 42.8786 65.5777 43.1877C65.8215 43.4968 66.1309 43.651 66.5091 43.651Z" fill="#010101"/>
<path d="M86.9366 42.8895C84.6251 45.1573 82.8431 46.2922 81.5911 46.2922C81.0289 46.2922 80.5544 46.0546 80.1686 45.5812C79.7827 45.1061 79.5884 44.5179 79.5884 43.8167C79.5884 42.5169 80.2843 40.7751 81.6744 38.5896C80.9925 38.9402 80.2475 39.1836 79.4369 39.3222C78.8383 40.4285 77.8986 41.6182 76.6192 42.8892H76.3022V41.646C77.0198 40.8993 77.6693 40.0967 78.2495 39.2392C77.4565 38.8886 77.0613 38.3676 77.0613 37.6772C77.0613 36.9663 77.3022 36.2084 77.7868 35.4007C78.27 34.5948 78.935 34.1919 79.7827 34.1919C80.501 34.1919 80.8594 34.5594 80.8594 35.2975C80.8594 35.8784 80.6525 36.7078 80.2374 37.787C81.7656 37.6205 83.1009 36.4507 84.2433 34.2742L85.4996 34.2186L84.2151 37.7588C83.6815 39.2525 83.336 40.27 83.1799 40.8087C83.0237 41.3474 82.9448 41.8255 82.9448 42.2396C82.9448 42.6274 83.0349 42.9372 83.2138 43.1661C83.3933 43.3982 83.6357 43.5123 83.9393 43.5123C84.2703 43.5123 84.5887 43.399 84.8923 43.1744C85.196 42.9466 85.8775 42.3226 86.9369 41.2994V42.8895H86.9366Z" fill="#010101"/>
<path d="M100.5 42.8896C98.3733 45.1405 96.5491 46.2648 95.0306 46.2648C94.4136 46.2648 93.9164 46.0482 93.5388 45.6146C93.1606 45.1816 92.972 44.601 92.972 43.8728C92.972 42.8864 93.3776 41.3786 94.1883 39.3512C94.6206 38.263 94.8377 37.5705 94.8377 37.2766C94.8377 36.9812 94.7216 36.8335 94.4926 36.8335C94.3639 36.8335 94.1926 36.8985 93.9813 37.0267C93.7869 37.1556 93.5615 37.3368 93.3037 37.5668C93.074 37.7784 92.8155 38.0366 92.5302 38.3399C92.2811 38.6002 92.0139 38.8948 91.7301 39.2256L90.9555 40.1253C90.6155 40.5398 90.4034 40.9771 90.3209 41.4385C90.182 42.222 90.0905 42.942 90.0439 43.5973C90.0158 44.0847 90.0025 44.7433 90.0025 45.5748L86.95 46.2926C86.8494 45.048 86.7979 44.1212 86.7979 43.5135C86.7979 42.0292 86.9706 40.6229 87.3164 39.2956C87.6615 37.9669 88.2157 36.4743 88.9805 34.8141L92.3499 34.1646C91.6414 36.0735 91.1766 37.5755 90.9555 38.6721C92.4657 36.9852 93.6629 35.8175 94.5503 35.1665C95.4363 34.5162 96.2252 34.1927 96.9147 34.1927C97.3831 34.1927 97.7747 34.3696 98.0866 34.7238C98.4 35.0784 98.5558 35.5236 98.5558 36.0558C98.5558 36.94 98.1598 38.3969 97.3691 40.4261C96.8253 41.8176 96.5534 42.7206 96.5534 43.1377C96.5534 43.6926 96.7795 43.9699 97.2317 43.9699C97.9049 43.9699 98.9953 43.0799 100.5 41.3006V42.8896Z" fill="#010101"/>
<path d="M52.9091 17.2273L51.7045 17.5682C51.6288 17.3674 51.517 17.1723 51.3693 16.983C51.2254 16.7898 51.0284 16.6307 50.7784 16.5057C50.5284 16.3807 50.2083 16.3182 49.8182 16.3182C49.2841 16.3182 48.839 16.4413 48.483 16.6875C48.1307 16.9299 47.9545 17.2386 47.9545 17.6136C47.9545 17.947 48.0758 18.2102 48.3182 18.4034C48.5606 18.5966 48.9394 18.7576 49.4545 18.8864L50.75 19.2045C51.5303 19.3939 52.1117 19.6837 52.4943 20.0739C52.8769 20.4602 53.0682 20.9583 53.0682 21.5682C53.0682 22.0682 52.9242 22.5152 52.6364 22.9091C52.3523 23.303 51.9545 23.6136 51.4432 23.8409C50.9318 24.0682 50.3371 24.1818 49.6591 24.1818C48.7689 24.1818 48.0322 23.9886 47.4489 23.6023C46.8655 23.2159 46.4962 22.6515 46.3409 21.9091L47.6136 21.5909C47.7348 22.0606 47.964 22.4129 48.3011 22.6477C48.642 22.8826 49.0871 23 49.6364 23C50.2614 23 50.7576 22.8674 51.125 22.6023C51.4962 22.3333 51.6818 22.0114 51.6818 21.6364C51.6818 21.3333 51.5758 21.0795 51.3636 20.875C51.1515 20.6667 50.8258 20.5114 50.3864 20.4091L48.9318 20.0682C48.1326 19.8788 47.5455 19.5852 47.1705 19.1875C46.7992 18.786 46.6136 18.2841 46.6136 17.6818C46.6136 17.1894 46.7519 16.7538 47.0284 16.375C47.3087 15.9962 47.6894 15.6989 48.1705 15.483C48.6553 15.267 49.2045 15.1591 49.8182 15.1591C50.6818 15.1591 51.3598 15.3485 51.8523 15.7273C52.3485 16.1061 52.7008 16.6061 52.9091 17.2273ZM58.6321 24.1818C57.8139 24.1818 57.1094 23.9886 56.5185 23.6023C55.9276 23.2159 55.473 22.6837 55.1548 22.0057C54.8366 21.3277 54.6776 20.553 54.6776 19.6818C54.6776 18.7955 54.8404 18.0133 55.1662 17.3352C55.4957 16.6534 55.9541 16.1212 56.5412 15.7386C57.1321 15.3523 57.8215 15.1591 58.6094 15.1591C59.223 15.1591 59.776 15.2727 60.2685 15.5C60.7609 15.7273 61.1643 16.0455 61.4787 16.4545C61.7931 16.8636 61.9882 17.3409 62.0639 17.8864H60.723C60.6207 17.4886 60.3935 17.1364 60.0412 16.8295C59.6927 16.5189 59.223 16.3636 58.6321 16.3636C58.1094 16.3636 57.651 16.5 57.2571 16.7727C56.867 17.0417 56.562 17.4223 56.3423 17.9148C56.1264 18.4034 56.0185 18.9773 56.0185 19.6364C56.0185 20.3106 56.1245 20.8977 56.3366 21.3977C56.5526 21.8977 56.8556 22.286 57.2457 22.5625C57.6397 22.839 58.1018 22.9773 58.6321 22.9773C58.9806 22.9773 59.2969 22.9167 59.581 22.7955C59.8651 22.6742 60.1056 22.5 60.3026 22.2727C60.4995 22.0455 60.6397 21.7727 60.723 21.4545H62.0639C61.9882 21.9697 61.8007 22.4337 61.5014 22.8466C61.206 23.2557 60.8139 23.5814 60.3253 23.8239C59.8404 24.0625 59.276 24.1818 58.6321 24.1818ZM64.0241 24V15.2727H65.3651V24H64.0241ZM64.706 13.8182C64.4446 13.8182 64.2192 13.7292 64.0298 13.5511C63.8442 13.3731 63.7514 13.1591 63.7514 12.9091C63.7514 12.6591 63.8442 12.4451 64.0298 12.267C64.2192 12.089 64.4446 12 64.706 12C64.9673 12 65.1908 12.089 65.3764 12.267C65.5658 12.4451 65.6605 12.6591 65.6605 12.9091C65.6605 13.1591 65.5658 13.3731 65.3764 13.5511C65.1908 13.7292 64.9673 13.8182 64.706 13.8182ZM69.071 20.8182L69.0483 19.1591H69.321L73.1392 15.2727H74.7983L70.7301 19.3864H70.6165L69.071 20.8182ZM67.821 24V12.3636H69.1619V24H67.821ZM73.3665 24L69.9574 19.6818L70.9119 18.75L75.071 24H73.3665ZM76.5241 24V15.2727H77.8651V24H76.5241ZM77.206 13.8182C76.9446 13.8182 76.7192 13.7292 76.5298 13.5511C76.3442 13.3731 76.2514 13.1591 76.2514 12.9091C76.2514 12.6591 76.3442 12.4451 76.5298 12.267C76.7192 12.089 76.9446 12 77.206 12C77.4673 12 77.6908 12.089 77.8764 12.267C78.0658 12.4451 78.1605 12.6591 78.1605 12.9091C78.1605 13.1591 78.0658 13.3731 77.8764 13.5511C77.6908 13.7292 77.4673 13.8182 77.206 13.8182ZM84.1165 15.2727V16.4091H79.5938V15.2727H84.1165ZM80.9119 13.1818H82.2528V21.5C82.2528 21.8788 82.3078 22.1629 82.4176 22.3523C82.5313 22.5379 82.6752 22.6629 82.8494 22.7273C83.0275 22.7879 83.215 22.8182 83.4119 22.8182C83.5597 22.8182 83.6809 22.8106 83.7756 22.7955C83.8703 22.7765 83.946 22.7614 84.0028 22.75L84.2756 23.9545C84.1847 23.9886 84.0578 24.0227 83.8949 24.0568C83.732 24.0947 83.5256 24.1136 83.2756 24.1136C82.8968 24.1136 82.5256 24.0322 82.1619 23.8693C81.8021 23.7064 81.5028 23.4583 81.2642 23.125C81.0294 22.7917 80.9119 22.3712 80.9119 21.8636V13.1818Z" fill="white"/>
</g>
<defs>
<clipPath id="clip0_79_2003">
<rect width="100" height="54" fill="white" transform="translate(0.5)"/>
</clipPath>
</defs>
</svg>
