<svg width="100" height="62" viewBox="0 0 100 62" fill="none" xmlns="http://www.w3.org/2000/svg">
<g clip-path="url(#clip0_79_1670)">
<mask id="mask0_79_1670" style="mask-type:luminance" maskUnits="userSpaceOnUse" x="0" y="0" width="100" height="61">
<path d="M0 0.5H100V60.3909H0V0.5Z" fill="white"/>
</mask>
<g mask="url(#mask0_79_1670)">
<path fill-rule="evenodd" clip-rule="evenodd" d="M50 0.5C36.6667 0.5 28.3333 7.15455 25 20.4636C30 13.8091 35.8333 11.3136 42.5 12.9773C46.3037 13.9255 49.0222 16.6816 52.0315 19.7298C56.9333 24.6967 62.6074 30.4455 75 30.4455C88.3333 30.4455 96.6667 23.7909 100 10.4818C95 17.1364 89.1667 19.6318 82.5 17.9682C78.6963 17.0199 75.9778 14.2638 72.9685 11.2157C68.0667 6.24879 62.3926 0.5 50 0.5ZM25 30.4455C11.6667 30.4455 3.33333 37.1 0 50.4091C5 43.7545 10.8333 41.2591 17.5 42.9227C21.3037 43.8729 24.0222 46.6271 27.0315 49.6752C31.9333 54.6421 37.6074 60.3909 50 60.3909C63.3333 60.3909 71.6667 53.7364 75 40.4273C70 47.0818 64.1667 49.5773 57.5 47.9136C53.6963 46.9654 50.9778 44.2093 47.9685 41.1611C43.0667 36.1942 37.3926 30.4455 25 30.4455Z" fill="#38BDF8"/>
</g>
</g>
<defs>
<clipPath id="clip0_79_1670">
<rect width="100" height="61" fill="white" transform="translate(0 0.5)"/>
</clipPath>
</defs>
</svg>
