<svg width="64" height="50" viewBox="0 0 64 50" fill="none" xmlns="http://www.w3.org/2000/svg">
<path d="M40.7688 45.0259C38.9165 44.6027 36.262 43.4149 35.1855 42.5277C34.1179 41.6478 33.6002 40.5046 33.6002 39.027C33.6002 36.9048 34.2375 36.5199 37.7514 36.5203C40.11 36.5205 40.7516 36.6489 42.4802 37.4667C44.288 38.3219 44.4802 38.5064 44.4802 39.3864C44.4802 39.9219 44.4225 40.36 44.352 40.36C44.2815 40.36 43.4535 40.0014 42.512 39.5631C38.7055 37.7911 35.5451 39.2718 38.0798 41.6396C39.3866 42.8603 41.7472 43.3946 45.7602 43.378C50.8786 43.3569 54.1307 42.4033 56.2922 40.29C57.6872 38.9261 58.2411 37.4528 58.2355 35.1209C58.2296 32.6509 57.7528 31.7056 56.2183 31.1215C55.1387 30.7106 54.8826 30.7166 53.9207 31.1753C52.669 31.7722 52.1649 33.098 52.162 35.8L52.1601 37.48H49.927H47.6939L47.607 31.32L47.5201 25.16L44.8001 25.0707L42.0801 24.9814L40.9729 27.4707C38.9051 32.1197 34.3392 35.4556 28.3201 36.7152C24.6993 37.4728 16.8814 37.491 14.0801 36.7482C9.3074 35.4827 4.20071 32.1012 2.38587 29.0044C1.3161 27.1789 1.00869 24.6621 1.72245 23.5728L2.25144 22.7654L19.9258 22.6827L37.6002 22.6L37.6996 20.8428C37.9381 16.6266 36.3096 12.0241 33.7418 9.6572C31.0342 7.16137 26.7698 5.87894 23.1049 6.4583C20.0881 6.93518 19.7864 7.19498 21.9894 7.41867C23.3748 7.55933 24.378 7.88497 25.2945 8.49149C27.5729 9.99926 28.4707 13.2717 27.345 15.9659C26.207 18.6895 23.9997 19.9934 20.4802 20.0211C17.4004 20.0454 15.9047 19.3214 14.5602 17.1556C13.7229 15.8068 13.6018 15.3177 13.6127 13.328C13.627 10.6941 14.4715 8.88666 16.5334 7.07625C18.749 5.13091 20.8674 4.39529 24.6402 4.26112C30.4036 4.05615 34.5892 5.46925 37.8471 8.71984C40.8803 11.7463 42.5507 16.1339 42.5578 21.0935L42.5604 22.7869L45.0404 22.6935L47.5204 22.6L47.6054 13.56L47.6903 4.52001H49.9254H52.1604V17.2199V29.9197L53.1054 29.0143C54.7445 27.444 58.1988 27.5484 60.3406 29.2331C62.4548 30.8961 63.0965 35.495 61.6475 38.6C60.3602 41.3584 57.339 43.5468 53.2629 44.6731C50.6153 45.4047 43.3274 45.6105 40.7688 45.0259ZM26.3067 34.3039C29.4857 33.4909 32.599 31.9432 34.2533 30.3536C35.4832 29.1718 37.1096 26.3586 37.1171 25.4C37.1197 25.0854 33.7484 25 21.3194 25C3.75039 25 4.5301 24.8998 4.94385 27.1052C5.48807 30.0062 10.6318 33.3936 16.4802 34.7025C18.331 35.1168 24.033 34.8855 26.3067 34.3039ZM21.6849 16.2246C22.7268 15.2698 22.8802 14.9439 22.8802 13.6856C22.8802 11.0464 20.1973 9.26248 17.9645 10.4171C15.4754 11.7043 15.4042 15.4951 17.8443 16.8191C19.2836 17.6 20.3671 17.4323 21.6849 16.2246Z" fill="black"/>
</svg>
