<svg width="94" height="100" viewBox="0 0 94 100" fill="none" xmlns="http://www.w3.org/2000/svg">
<g clip-path="url(#clip0_79_2015)">
<path d="M53.6426 15.3838V30.7691L80.2132 46.1545V30.7691L53.6426 15.3838ZM0.5 30.7691V46.1545L13.7853 53.8456V38.4618L0.5 30.7691ZM40.3558 38.4618L27.0705 46.1545V92.3074L40.3558 100V69.2309L53.6426 76.9236V61.5382L40.3558 53.8456V38.4618Z" fill="#E55B2D"/>
<path d="M53.6425 15.3838L13.7852 38.4618V53.8456L40.3557 38.4618V53.8456L53.6425 46.1545V15.3838ZM93.4999 23.0765L80.2131 30.7691V46.1545L93.4999 38.4618V23.0765ZM66.9278 53.8456L53.6425 61.5382V76.9236L66.9278 69.2309V53.8456ZM53.6425 76.9236L40.3557 69.2309V100L53.6425 92.3074V76.9236Z" fill="#ED8E24"/>
<path d="M53.6426 0L0.5 30.7691L13.7853 38.4618L53.6426 15.3838L80.2132 30.7691L93.5 23.0764L53.6426 0ZM53.6426 46.1545L40.3558 53.8455L53.6426 61.5382L66.9279 53.8455L53.6426 46.1545Z" fill="#F8BF3C"/>
</g>
<defs>
<clipPath id="clip0_79_2015">
<rect width="93" height="100" fill="white" transform="translate(0.5)"/>
</clipPath>
</defs>
</svg>
