<svg width="100" height="100" viewBox="0 0 100 100" fill="none" xmlns="http://www.w3.org/2000/svg">
<path d="M3.1375 45.0314C3.21875 46.0877 4.09687 46.9127 5.16562 46.9127C6.23437 46.9127 7.1125 46.0877 7.19375 45.0377V45.0314V40.5221C7.14375 39.4408 6.25625 38.5814 5.16562 38.5814C4.075 38.5814 3.1875 39.4408 3.1375 40.5189V40.5221V45.0314ZM14.3687 45.0314C14.4625 46.0783 15.3375 46.8908 16.4 46.8908C17.4625 46.8908 18.3375 46.0783 18.4312 45.0377V45.0283V34.9189C18.3812 33.8377 17.4937 32.9783 16.4031 32.9783C15.3125 32.9783 14.425 33.8377 14.375 34.9158V45.0283L14.3687 45.0314ZM25.5437 49.1064C25.5937 50.1877 26.4812 51.0471 27.5719 51.0471C28.6625 51.0471 29.55 50.1877 29.6 49.1096V49.1064V27.2346C29.55 26.1533 28.6625 25.2939 27.5719 25.2939C26.4812 25.2939 25.5937 26.1533 25.5437 27.2314V27.2346V49.1064ZM36.8156 45.0314C36.8656 46.1127 37.7531 46.9721 38.8438 46.9721C39.9344 46.9721 40.8219 46.1127 40.8719 45.0346V45.0314V34.9221C40.8219 33.8408 39.9344 32.9814 38.8438 32.9814C37.7531 32.9814 36.8656 33.8408 36.8156 34.9189V34.9221V45.0314ZM48.025 45.0314C48.1312 46.0689 48.9969 46.8689 50.0531 46.8689C51.1094 46.8689 51.9781 46.0658 52.0812 45.0377V45.0283V40.5189C52.0312 39.4377 51.1437 38.5783 50.0531 38.5783C48.9625 38.5783 48.075 39.4377 48.025 40.5158V45.0314ZM59.3437 45.0314C59.4125 46.1002 60.2937 46.9408 61.375 46.9408C62.4562 46.9408 63.3375 46.1002 63.4062 45.0377V45.0314V34.9221C63.3563 33.8408 62.4688 32.9814 61.3781 32.9814C60.2875 32.9814 59.4 33.8408 59.35 34.9189V34.9221V45.0314H59.3437ZM70.4281 49.1064C70.5094 50.1627 71.3875 50.9877 72.4563 50.9877C73.525 50.9877 74.4031 50.1627 74.4844 49.1127V49.1064V27.2346C74.4344 26.1533 73.5469 25.2939 72.4563 25.2939C71.3656 25.2939 70.4781 26.1533 70.4281 27.2314V27.2346V49.1064ZM81.6969 45.0314C81.7812 46.0877 82.6594 46.9158 83.7281 46.9158C84.7969 46.9158 85.6781 46.0908 85.7594 45.0377V45.0314V34.9221C85.6906 33.8533 84.8094 33.0127 83.7281 33.0127C82.6469 33.0127 81.7656 33.8533 81.6969 34.9158V34.9221V45.0314ZM92.8031 45.0314C92.8531 46.1127 93.7406 46.9721 94.8313 46.9721C95.9219 46.9721 96.8094 46.1127 96.8594 45.0346V45.0314V40.5221C96.8094 39.4408 95.9219 38.5814 94.8313 38.5814C93.7406 38.5814 92.8531 39.4408 92.8031 40.5189V40.5221V45.0314ZM71.175 66.2533C71.25 70.9252 75.0563 74.6846 79.7375 74.6846C80.3938 74.6846 81.0312 74.6096 81.6437 74.4721L81.5875 74.4814C85.4844 73.7252 88.3875 70.3377 88.3875 66.2752C88.3875 63.2471 86.775 60.5939 84.3625 59.1283L84.325 59.1064C83.0375 58.2971 81.4719 57.8189 79.7937 57.8189C75.1 57.8189 71.2812 61.5721 71.1781 66.2439V66.2533H71.175ZM77.1281 62.9189C77.8594 62.3189 78.8031 61.9564 79.8312 61.9564C82.1937 61.9564 84.1094 63.8721 84.1094 66.2346C84.1094 67.5689 83.4969 68.7627 82.5406 69.5471L82.5344 69.5533L82.4687 69.6064C81.7562 70.1596 80.8469 70.4908 79.8625 70.4908C77.5 70.4908 75.5813 68.5752 75.5813 66.2096C75.5813 64.8877 76.1813 63.7064 77.1219 62.9221L77.1281 62.9158V62.9189ZM29.6344 74.3846H33.7344V58.1127H29.6344V74.3846ZM39.3 70.4971L39.2844 74.2346L39.5562 74.2814C40.2812 74.4252 41.1719 74.5439 42.0719 74.6096L42.1469 74.6127C42.5844 74.6564 43.0937 74.6814 43.6094 74.6814C43.9 74.6814 44.1906 74.6721 44.4812 74.6564L44.4406 74.6596C45.2312 74.6002 45.9625 74.4533 46.6625 74.2346L46.5937 74.2533C47.4531 74.0064 48.2 73.5939 48.8312 73.0564L48.8219 73.0627C49.3969 72.5689 49.8406 71.9408 50.1125 71.2283L50.1219 71.1971C50.3375 70.6502 50.4656 70.0189 50.4656 69.3564C50.4656 68.6689 50.3312 68.0127 50.0844 67.4127L50.0969 67.4471C49.8344 66.8033 49.4375 66.2627 48.9375 65.8346L48.9312 65.8283C48.4531 65.4002 47.8812 65.0596 47.2562 64.8439L47.2219 64.8346L44.4031 63.7877C44.0656 63.6408 43.7969 63.3846 43.6375 63.0627L43.6344 63.0533C43.5812 62.9377 43.55 62.8002 43.55 62.6564C43.55 62.4877 43.5937 62.3314 43.6687 62.1939L43.6656 62.2002C43.8125 61.9627 44.0156 61.7752 44.2594 61.6502L44.2687 61.6471C44.5594 61.5033 44.9 61.4002 45.2562 61.3596H45.2719C45.5219 61.3221 45.8125 61.3002 46.1094 61.3002C46.45 61.3002 46.7812 61.3283 47.1031 61.3846L47.0687 61.3783C47.8594 61.4658 48.5656 61.5971 49.2531 61.7752L49.15 61.7533L49.2969 61.7846V58.3346L49.0281 58.2752C48.45 58.1283 47.7312 57.9939 46.9969 57.9064L46.9062 57.8971C46.475 57.8377 45.975 57.8033 45.4656 57.8033C44.9906 57.8033 44.5219 57.8346 44.0625 57.8908L44.1187 57.8846C42.8937 58.0002 41.7937 58.4689 40.9 59.1814L40.9125 59.1721C40.3 59.6564 39.8281 60.2971 39.55 61.0314L39.5406 61.0596C39.3469 61.5814 39.2344 62.1846 39.2344 62.8158C39.2344 63.4471 39.3469 64.0502 39.5531 64.6064L39.5406 64.5689C39.7625 65.1533 40.0969 65.6502 40.5219 66.0564H40.525C40.8937 66.4127 41.3156 66.7189 41.7719 66.9627L41.8031 66.9783C42.3594 67.2814 43.0031 67.5408 43.6812 67.7252L43.7437 67.7408C43.9656 67.8064 44.1875 67.8783 44.4062 67.9502L44.7375 68.0721L44.8312 68.1096C45.175 68.2346 45.4687 68.4189 45.7156 68.6564C45.8875 68.8158 46.0219 69.0127 46.1062 69.2346L46.1094 69.2439C46.1344 69.3408 46.15 69.4502 46.15 69.5658C46.15 69.6752 46.1375 69.7814 46.1094 69.8814L46.1125 69.8721C46.0031 70.2096 45.7719 70.4814 45.4719 70.6408L45.4656 70.6439C45.1531 70.8064 44.7906 70.9252 44.4094 70.9783L44.3906 70.9814C44.025 71.0408 43.6 71.0752 43.1687 71.0752C43.0125 71.0752 42.8562 71.0721 42.7 71.0627H42.7219C41.8937 70.9971 41.15 70.8939 40.4187 70.7533L40.5469 70.7752C40.1719 70.6939 39.7979 70.6064 39.425 70.5127L39.3 70.4971ZM23.975 74.1002V69.7627L23.8906 69.8002C22.9781 70.2533 21.9094 70.5377 20.7812 70.5908H20.7625C20.6562 70.6002 20.5312 70.6033 20.4062 70.6033C19.3531 70.6033 18.3812 70.2502 17.6031 69.6564L17.6156 69.6658C16.9844 69.1752 16.5062 68.5127 16.2531 67.7502L16.2437 67.7221C16.0937 67.2846 16.0094 66.7814 16.0094 66.2564C16.0094 65.8502 16.0594 65.4596 16.1562 65.0846L16.15 65.1158C16.3594 64.2127 16.8562 63.4471 17.5375 62.9002L17.5437 62.8939C18.1406 62.3908 18.8937 62.0502 19.7187 61.9502L19.7375 61.9471C19.9781 61.9189 20.2594 61.9033 20.5406 61.9033C21.7625 61.9033 22.9125 62.2064 23.9187 62.7408L23.8781 62.7221L23.9719 62.7721V58.4096L23.7719 58.3564C22.7562 58.0221 21.5875 57.8283 20.375 57.8283C20.1812 57.8283 19.9875 57.8346 19.7969 57.8439H19.825C18.5406 57.8783 17.3344 58.1689 16.2406 58.6721L16.2969 58.6471C15.1469 59.1814 14.1812 59.9377 13.4187 60.8627L13.4062 60.8752C12.2406 62.3408 11.5344 64.2189 11.5344 66.2627C11.5344 68.2127 12.1781 70.0127 13.2625 71.4627L13.2469 71.4408C14.3812 72.8877 15.9625 73.9377 17.7844 74.3814L17.8406 74.3939C18.6031 74.5877 19.4812 74.7002 20.3844 74.7002C21.55 74.7002 22.6719 74.5127 23.725 74.1689L23.65 74.1908L23.975 74.1002ZM66.9125 74.1002V69.7627L66.8281 69.8002C65.9156 70.2533 64.8469 70.5377 63.7187 70.5908H63.7C63.5938 70.6002 63.4719 70.6033 63.3469 70.6033C62.2906 70.6033 61.3187 70.2502 60.5406 69.6564L60.5531 69.6658C59.9219 69.1752 59.4437 68.5127 59.1875 67.7502L59.1781 67.7221C59.0312 67.2877 58.9469 66.7846 58.9469 66.2627C58.9469 65.8564 58.9969 65.4596 59.0937 65.0846L59.0875 65.1158C59.3 64.2127 59.7969 63.4471 60.475 62.9002L60.4812 62.8939C61.0781 62.3908 61.8312 62.0502 62.6562 61.9502L62.675 61.9471C62.9156 61.9189 63.1969 61.9033 63.4781 61.9033C64.7 61.9033 65.85 62.2064 66.8562 62.7408L66.8156 62.7221L66.9094 62.7721V58.4096L66.7094 58.3564C65.6937 58.0221 64.525 57.8283 63.3125 57.8283C63.1187 57.8283 62.925 57.8346 62.7344 57.8439H62.7625C61.4781 57.8783 60.2719 58.1689 59.1781 58.6721L59.2344 58.6471C58.0844 59.1814 57.1219 59.9346 56.3594 60.8627L56.3469 60.8783C55.1781 62.3439 54.475 64.2189 54.475 66.2627C54.475 68.2158 55.1187 70.0158 56.2094 71.4658L56.1937 71.4439C57.3281 72.8908 58.9094 73.9377 60.725 74.3846L60.7812 74.3971C61.5438 74.5908 62.4219 74.7033 63.325 74.7033C64.4906 74.7033 65.6125 74.5158 66.6656 74.1721L66.5906 74.1939L66.9094 74.1033L66.9125 74.1002Z" fill="#1E1926"/>
</svg>
