<svg width="24" height="25" viewBox="0 0 24 25" fill="none" xmlns="http://www.w3.org/2000/svg">
<path fill-rule="evenodd" clip-rule="evenodd" d="M14 5.5C13.4477 5.5 13 5.05228 13 4.5C13 3.94772 13.4477 3.5 14 3.5H20C20.5523 3.5 21 3.94772 21 4.5V10.5C21 11.0523 20.5523 11.5 20 11.5C19.4477 11.5 19 11.0523 19 10.5V6.91421L11.7071 14.2071C11.3166 14.5976 10.6834 14.5976 10.2929 14.2071C9.90237 13.8166 9.90237 13.1834 10.2929 12.7929L17.5858 5.5H14ZM5 7.5C4.44772 7.5 4 7.94772 4 8.5V19.5C4 20.0523 4.44772 20.5 5 20.5H16C16.5523 20.5 17 20.0523 17 19.5V14.9375C17 14.3852 17.4477 13.9375 18 13.9375C18.5523 13.9375 19 14.3852 19 14.9375V19.5C19 21.1569 17.6569 22.5 16 22.5H5C3.34315 22.5 2 21.1569 2 19.5V8.5C2 6.84315 3.34315 5.5 5 5.5H9.5625C10.1148 5.5 10.5625 5.94772 10.5625 6.5C10.5625 7.05228 10.1148 7.5 9.5625 7.5H5Z" fill="#41bea6"/>
</svg>
